<svg width="31" height="31" viewBox="0 0 31 31" fill="none" xmlns="http://www.w3.org/2000/svg">
<g clip-path="url(#clip0_2887_5435)">
<path d="M30.187 4.13454C29.645 3.59244 28.9933 3.32153 28.2323 3.32153H2.76792C2.00678 3.32153 1.35506 3.59244 0.813012 4.13454C0.270903 4.67677 0 5.32819 0 6.08945V24.911C0 25.6724 0.270903 26.3235 0.813012 26.866C1.355 27.408 2.00672 27.6788 2.76792 27.6788H28.2323C28.9933 27.6788 29.645 27.408 30.187 26.866C30.7293 26.3235 31.0001 25.672 31.0001 24.911V6.08945C31 5.32819 30.7293 4.67653 30.187 4.13454ZM28.7855 24.9106C28.7855 25.0606 28.7308 25.1903 28.6213 25.2998C28.512 25.4095 28.382 25.4638 28.2323 25.4638H2.76792C2.61802 25.4638 2.4883 25.4095 2.37875 25.2998C2.26914 25.1903 2.21442 25.0606 2.21442 24.9106V10.518C2.21442 10.368 2.26914 10.2382 2.37875 10.1286C2.48836 10.0191 2.61802 9.96443 2.76792 9.96443H28.2323C28.382 9.96443 28.5118 10.019 28.6213 10.1286C28.7308 10.2382 28.7855 10.368 28.7855 10.518V24.9106Z" fill="#343A40"/>
<path d="M6.08933 21.0361H4.98221C4.83231 21.0361 4.70258 21.0904 4.59303 21.1999C4.48355 21.3096 4.42871 21.4394 4.42871 21.5893V22.6964C4.42871 22.8465 4.48355 22.9761 4.59303 23.0858C4.70264 23.1955 4.83231 23.2498 4.98221 23.2498H6.08933C6.23917 23.2498 6.36896 23.1955 6.47851 23.0858C6.588 22.9761 6.64283 22.8465 6.64283 22.6964V21.5893C6.64283 21.4394 6.588 21.3096 6.47851 21.1999C6.36896 21.0908 6.23917 21.0361 6.08933 21.0361Z" fill="#343A40"/>
<path d="M6.08933 16.6069H4.98221C4.83231 16.6069 4.70258 16.6621 4.59303 16.7714C4.48355 16.8811 4.42871 17.0109 4.42871 17.1606V18.2678C4.42871 18.418 4.48355 18.5471 4.59303 18.6573C4.70264 18.7663 4.83231 18.8212 4.98221 18.8212H6.08933C6.23917 18.8212 6.36896 18.7663 6.47851 18.6573C6.588 18.5472 6.64283 18.418 6.64283 18.2678V17.1606C6.64283 17.0109 6.588 16.8807 6.47851 16.7714C6.36896 16.6621 6.23917 16.6069 6.08933 16.6069Z" fill="#343A40"/>
<path d="M6.08933 12.1787H4.98221C4.83231 12.1787 4.70258 12.2334 4.59303 12.3428C4.48355 12.4526 4.42871 12.5821 4.42871 12.732V13.8393C4.42871 13.9892 4.48355 14.119 4.59303 14.2286C4.70264 14.3378 4.83231 14.3929 4.98221 14.3929H6.08933C6.23917 14.3929 6.36896 14.3381 6.47851 14.2286C6.588 14.119 6.64283 13.9892 6.64283 13.8393V12.732C6.64283 12.5821 6.588 12.4523 6.47851 12.3428C6.36896 12.2335 6.23917 12.1787 6.08933 12.1787Z" fill="#343A40"/>
<path d="M26.0181 21.0361H9.41092C9.26108 21.0361 9.13129 21.0904 9.02175 21.1999C8.91226 21.3096 8.85742 21.4394 8.85742 21.5893V22.6964C8.85742 22.8465 8.91226 22.9761 9.02175 23.0858C9.13135 23.1955 9.26114 23.2498 9.41092 23.2498H26.0183C26.1685 23.2498 26.298 23.1955 26.4078 23.0858C26.517 22.9761 26.5718 22.8465 26.5718 22.6964V21.5893C26.5718 21.4394 26.5168 21.3096 26.4075 21.1999C26.298 21.0904 26.1682 21.0361 26.0181 21.0361Z" fill="#343A40"/>
<path d="M26.0181 16.6069H9.41092C9.26108 16.6069 9.13129 16.6621 9.02175 16.7714C8.91226 16.8811 8.85742 17.0109 8.85742 17.1606V18.2678C8.85742 18.418 8.91226 18.5471 9.02175 18.6573C9.13135 18.7663 9.26114 18.8212 9.41092 18.8212H26.0183C26.1685 18.8212 26.298 18.7663 26.4078 18.6573C26.517 18.5472 26.5718 18.418 26.5718 18.2678V17.1606C26.5718 17.0109 26.5168 16.8807 26.4075 16.7714C26.298 16.6621 26.1682 16.6069 26.0181 16.6069Z" fill="#343A40"/>
<path d="M26.0181 12.1787H9.41092C9.26108 12.1787 9.13129 12.2334 9.02175 12.3428C8.91226 12.4526 8.85742 12.5821 8.85742 12.732V13.8393C8.85742 13.9892 8.91226 14.1192 9.02175 14.2286C9.13135 14.3378 9.26114 14.3929 9.41092 14.3929H26.0183C26.1685 14.3929 26.2985 14.3381 26.4078 14.2286C26.517 14.119 26.5718 13.9892 26.5718 13.8393V12.732C26.5718 12.5821 26.5168 12.4523 26.4075 12.3428C26.298 12.2335 26.1682 12.1787 26.0181 12.1787Z" fill="#343A40"/>
</g>
<defs>
<clipPath id="clip0_2887_5435">
<rect width="31" height="31" fill="white"/>
</clipPath>
</defs>
</svg>
