<svg width="32" height="24" viewBox="0 0 32 24" fill="none" xmlns="http://www.w3.org/2000/svg">
<g clip-path="url(#clip0_2887_5460)">
<path d="M28.0001 0H4.00006C2.93919 0 1.92178 0.421427 1.17163 1.17157C0.421488 1.92172 6.02037e-05 2.93913 6.02037e-05 4V20C-0.00253588 20.4511 0.0788501 20.8987 0.24006 21.32C0.555996 22.2173 1.17953 22.9737 2.00006 23.455C2.60816 23.8071 3.2974 23.9949 4.00006 24H28.0001C28.6673 23.9969 29.3233 23.8286 29.9096 23.5102C30.4959 23.1917 30.9943 22.733 31.3601 22.175C31.7741 21.5248 31.9959 20.7708 32.0001 20V4C32.0001 2.93913 31.5786 1.92172 30.8285 1.17157C30.0783 0.421427 29.0609 0 28.0001 0V0ZM16.5001 21.335H4.00006C3.85803 21.3336 3.71742 21.3065 3.58506 21.255L10.8251 11.375L16.7601 17.305L18.6401 19.185L20.7751 21.335H16.5001ZM29.3351 20C29.3337 20.3537 29.1927 20.6925 28.9426 20.9425C28.6925 21.1926 28.3537 21.3337 28.0001 21.335H24.5601L20.5601 17.305L23.9701 13.935L29.3601 19.935L29.3351 20ZM29.3351 15.935L25.0001 11.105C24.8792 10.9731 24.7335 10.8664 24.5714 10.7909C24.4092 10.7154 24.2338 10.6726 24.0551 10.665C23.8741 10.6564 23.6934 10.6868 23.5252 10.7541C23.357 10.8213 23.2052 10.924 23.0801 11.055L18.6701 15.425L11.6151 8.385C11.4746 8.25247 11.3086 8.14997 11.1272 8.08377C10.9458 8.01757 10.7528 7.98907 10.5601 8C10.3685 8.01787 10.1829 8.07559 10.015 8.16945C9.84705 8.2633 9.70062 8.39122 9.58506 8.545L2.66506 18V4C2.66638 3.64634 2.80745 3.30754 3.05753 3.05747C3.3076 2.80739 3.6464 2.66632 4.00006 2.665H28.0001C28.3537 2.66632 28.6925 2.80739 28.9426 3.05747C29.1927 3.30754 29.3337 3.64634 29.3351 4V15.935Z" fill="#343A40"/>
<path d="M18.665 11.9999C20.1368 11.9999 21.33 10.8068 21.33 9.33492C21.33 7.86308 20.1368 6.66992 18.665 6.66992C17.1932 6.66992 16 7.86308 16 9.33492C16 10.8068 17.1932 11.9999 18.665 11.9999Z" fill="#343A40"/>
</g>
<defs>
<clipPath id="clip0_2887_5460">
<rect width="32" height="24" fill="white"/>
</clipPath>
</defs>
</svg>
