<svg width="32" height="24" viewBox="0 0 32 24" fill="none" xmlns="http://www.w3.org/2000/svg">
<g clip-path="url(#clip0_2887_5430)">
<path d="M28 0H4C2.93913 0 1.92172 0.421427 1.17157 1.17157C0.421427 1.92172 0 2.93913 0 4L0 20C0 21.0609 0.421427 22.0783 1.17157 22.8284C1.92172 23.5786 2.93913 24 4 24H28C29.0609 24 30.0783 23.5786 30.8284 22.8284C31.5786 22.0783 32 21.0609 32 20V4C32 2.93913 31.5786 1.92172 30.8284 1.17157C30.0783 0.421427 29.0609 0 28 0V0ZM4 2.665H28C28.3537 2.66632 28.6925 2.80739 28.9425 3.05747C29.1926 3.30754 29.3337 3.64634 29.335 4V5.335H2.665V4C2.66632 3.64634 2.80739 3.30754 3.05747 3.05747C3.30754 2.80739 3.64634 2.66632 4 2.665ZM28 21.335H4C3.64634 21.3337 3.30754 21.1926 3.05747 20.9425C2.80739 20.6925 2.66632 20.3537 2.665 20V8H29.335V20C29.3337 20.3537 29.1926 20.6925 28.9425 20.9425C28.6925 21.1926 28.3537 21.3337 28 21.335Z" fill="#343A40"/>
<path d="M26.665 12H20V18.665H26.665V12Z" fill="#343A40"/>
</g>
<defs>
<clipPath id="clip0_2887_5430">
<rect width="32" height="24" fill="white"/>
</clipPath>
</defs>
</svg>
