<svg width="26" height="25" viewBox="0 0 26 25" fill="none" xmlns="http://www.w3.org/2000/svg">
<path fill-rule="evenodd" clip-rule="evenodd" d="M1.593 0H24.4091C24.8428 0 25.2405 0.177872 25.5282 0.462468L25.5304 0.46456L25.5325 0.466653L25.5346 0.468746C25.8223 0.755434 26 1.14675 26 1.57574V23.1883C26 23.6214 25.8202 24.0148 25.5325 24.2994C25.2448 24.584 24.847 24.7619 24.4091 24.7619H1.593C1.15932 24.7619 0.761595 24.5861 0.471766 24.2994L0.46965 24.2973L0.467535 24.2953L0.465419 24.2932C0.177705 24.0065 0 23.6152 0 23.1862V1.57155C0.00423108 1.13838 0.181937 0.744971 0.46965 0.460375C0.486575 0.443634 0.503499 0.426893 0.522539 0.412245C0.806021 0.156946 1.18259 0 1.593 0ZM3.72547 7.27602H21.9064V10.7602H3.72547V7.27602ZM10.6073 2.02984C11.1785 2.02984 11.6397 2.48812 11.6397 3.05103C11.6397 3.61395 11.1764 4.07223 10.6073 4.07223C10.0382 4.07223 9.57494 3.61395 9.57494 3.05103C9.57494 2.48812 10.0382 2.02984 10.6073 2.02984ZM3.38698 2.02984C3.95818 2.02984 4.41937 2.48812 4.41937 3.05103C4.41937 3.61395 3.95606 4.07223 3.38698 4.07223C2.81579 4.07223 2.3546 3.61395 2.3546 3.05103C2.3546 2.48812 2.81579 2.02984 3.38698 2.02984ZM6.99609 2.02984C7.56729 2.02984 8.02848 2.48812 8.02848 3.05103C8.02848 3.61395 7.56518 4.07223 6.99609 4.07223C6.4249 4.07223 5.96371 3.61395 5.96371 3.05103C5.96371 2.48812 6.42701 2.02984 6.99609 2.02984ZM24.5635 5.63541C24.5128 5.64378 24.462 5.64797 24.4112 5.64797H1.593C1.54011 5.64797 1.48934 5.64378 1.44068 5.63541V23.1841C1.44068 23.2259 1.45761 23.2636 1.48299 23.2908L1.48511 23.2929C1.51261 23.3201 1.54858 23.3347 1.593 23.3347H24.4091C24.4493 23.3347 24.4874 23.318 24.517 23.2887C24.5445 23.2615 24.5635 23.2238 24.5635 23.182V5.63541Z" fill="#343A40"/>
</svg>
