<svg id="Layer_1" data-name="Layer 1" xmlns="http://www.w3.org/2000/svg" viewBox="0 0 1119.08 186.16"><defs><style>.cls-1{fill:#6495ed;}.cls-2{fill:#ffdd30;}</style></defs><title>dotmobile_logo_v2A_typed</title><path class="cls-1" d="M43.9,305.92q0-30.27,13.58-48.21t37.14-17.95q18.91,0,31.23,14.12v-66h34.7V371.6H129.32l-1.68-13.75Q114.73,374,94.38,374q-22.84,0-36.67-18T43.9,305.92Zm34.57,2.58q0,18.21,6.34,27.92t18.43,9.7q16,0,22.61-13.54V281.42q-6.46-13.55-22.37-13.54Q78.47,267.88,78.47,308.5Z" transform="translate(-43.9 -187.84)"/><path class="cls-1" d="M182,305.68q0-19.26,7.42-34.33A54.25,54.25,0,0,1,210.73,248q14-8.27,32.37-8.26,26.19,0,42.77,16t18.48,43.55l.24,8.86Q304.59,338,288,356t-44.62,18q-28,0-44.69-17.95T182,307.24Zm34.58,2.46q0,18.45,6.94,28.22t19.86,9.76q12.56,0,19.62-9.64T270,305.62q0-18.09-7.06-28t-19.86-9.94q-12.69,0-19.62,9.88T216.54,308.14Z" transform="translate(-43.9 -187.84)"/><path class="cls-1" d="M367.28,210.33v31.82h22.14v25.37H367.28v64.6q0,7.19,2.76,10.29t10.52,3.11a55.91,55.91,0,0,0,10.17-.83v26.2A71.25,71.25,0,0,1,369.8,374q-36.37,0-37.09-36.73V267.52H313.8V242.15h18.91V210.33Z" transform="translate(-43.9 -187.84)"/><path class="cls-1" d="M441.1,242.15l1.08,14.48q13.76-16.87,37.21-16.87,25,0,34.33,19.74,13.65-19.74,38.89-19.74,21,0,31.34,12.26t10.29,36.91V371.6H559.55V289.05q0-11-4.31-16.09T540,267.88q-15.54,0-21.53,14.83l.12,88.89H484.05V289.17q0-11.24-4.42-16.27t-15.08-5q-14.71,0-21.29,12.2V371.6H408.68V242.15Z" transform="translate(-43.9 -187.84)"/><path class="cls-1" d="M615.42,305.68q0-19.26,7.41-34.33A54.33,54.33,0,0,1,644.19,248q13.93-8.27,32.36-8.26,26.21,0,42.78,16t18.48,43.55l.24,8.86q0,29.79-16.63,47.79t-44.63,18q-28,0-44.68-17.95t-16.69-48.81ZM650,308.14q0,18.45,6.94,28.22t19.86,9.76q12.57,0,19.62-9.64t7.06-30.86q0-18.09-7.06-28t-19.86-9.94q-12.67,0-19.62,9.88T650,308.14Z" transform="translate(-43.9 -187.84)"/><path class="cls-1" d="M876,308.08q0,31.1-13.29,48.51T825.63,374q-21.06,0-33.62-16.15l-1.56,13.75h-31.1V187.84h34.57v65.92q12-14,31.47-14,23.68,0,37.15,17.41t13.46,49Zm-34.58-2.52q0-19.62-6.22-28.65t-18.55-9q-16.5,0-22.73,13.52v51.08q6.35,13.65,23,13.64t22-16.51Q841.42,321.72,841.42,305.56Z" transform="translate(-43.9 -187.84)"/><path class="cls-1" d="M897.05,208.65a17,17,0,0,1,5.21-12.8q5.21-5,14.17-5t14.12,5a18.26,18.26,0,0,1-.06,25.73q-5.32,5-14.06,5t-14-5A17,17,0,0,1,897.05,208.65Zm36.73,163h-34.7V242.15h34.7Z" transform="translate(-43.9 -187.84)"/><path class="cls-1" d="M998.75,371.6h-34.7V187.84h34.7Z" transform="translate(-43.9 -187.84)"/><path class="cls-1" d="M1086.8,374q-28.47,0-46.36-17.47T1022.55,310v-3.35q0-19.5,7.54-34.88a55.32,55.32,0,0,1,21.36-23.68q13.82-8.33,31.52-8.32,26.57,0,41.82,16.75T1140,304v14.12h-82.43q1.67,12.67,10.11,20.33t21.35,7.66q20,0,31.23-14.48l17,19a52,52,0,0,1-21.06,17.17A69.17,69.17,0,0,1,1086.8,374Zm-4-106.36q-10.29,0-16.69,7T1058,294.56h48.09v-2.77q-.24-11.54-6.22-17.84T1082.85,267.64Z" transform="translate(-43.9 -187.84)"/><path class="cls-1" d="M1149.8,209.85h-3.45v9.39H1144v-9.39h-3.4V208h9.17Z" transform="translate(-43.9 -187.84)"/><path class="cls-1" d="M1154.16,208l2.89,8.17,2.88-8.17h3v11.27h-2.33v-3.08l.23-5.32-3,8.4h-1.59l-3-8.39.24,5.31v3.08h-2.32V208Z" transform="translate(-43.9 -187.84)"/><ellipse class="cls-2" cx="872.1" cy="21.16" rx="20" ry="19"/></svg>