<svg width="44" height="42" viewBox="0 0 44 42" fill="none" xmlns="http://www.w3.org/2000/svg">
<path d="M24.9215 27.9607H18.8431C17.876 27.9617 16.9491 28.3464 16.2655 29.0302C15.5817 29.7136 15.197 30.6407 15.196 31.6078V37.6862C15.1971 38.6533 15.5817 39.5802 16.2655 40.2638C16.949 40.9476 17.876 41.3323 18.8431 41.3332H24.9215C25.8886 41.3322 26.8156 40.9476 27.4991 40.2638C28.183 39.5803 28.5676 38.6533 28.5686 37.6862V31.6078C28.5676 30.6407 28.1829 29.7137 27.4991 29.0302C26.8156 28.3463 25.8886 27.9616 24.9215 27.9607ZM26.1372 37.6862C26.1365 38.3571 25.5925 38.9012 24.9215 38.9019H18.8431C18.1722 38.9012 17.6281 38.3571 17.6274 37.6862V31.6078C17.6281 30.9368 18.1722 30.3928 18.8431 30.3921H24.9215C25.5925 30.3927 26.1365 30.9368 26.1372 31.6078V37.6862Z" fill="#343A40"/>
<path d="M9.72548 27.9607H3.64706C2.67998 27.9617 1.75302 28.3464 1.06946 29.0302C0.385633 29.7136 0.000955182 30.6407 0 31.6078V37.6862C0.00101762 38.6533 0.385668 39.5802 1.06946 40.2638C1.75294 40.9476 2.67998 41.3323 3.64706 41.3332H9.72548C10.6926 41.3322 11.6195 40.9476 12.3031 40.2638C12.9869 39.5803 13.3716 38.6533 13.3725 37.6862V31.6078C13.3715 30.6407 12.9869 29.7137 12.3031 29.0302C11.6196 28.3463 10.6926 27.9616 9.72548 27.9607ZM10.9412 37.6862C10.9405 38.3571 10.3964 38.9012 9.72548 38.9019H3.64706C2.97612 38.9012 2.43207 38.3571 2.43137 37.6862V31.6078C2.43205 30.9368 2.97612 30.3928 3.64706 30.3921H9.72548C10.3964 30.3927 10.9405 30.9368 10.9412 31.6078V37.6862Z" fill="#079F71"/>
<path d="M40.1177 27.9607H34.0393C33.0722 27.9617 32.1452 28.3464 31.4617 29.0302C30.7778 29.7136 30.3932 30.6407 30.3922 31.6078V37.6862C30.3932 38.6533 30.7779 39.5802 31.4617 40.2638C32.1452 40.9476 33.0722 41.3323 34.0393 41.3332H40.1177C41.0848 41.3322 42.0117 40.9476 42.6953 40.2638C43.3791 39.5803 43.7638 38.6533 43.7648 37.6862V31.6078C43.7637 30.6407 43.3791 29.7137 42.6953 29.0302C42.0118 28.3463 41.0848 27.9616 40.1177 27.9607ZM41.3334 37.6862C41.3327 38.3571 40.7886 38.9012 40.1177 38.9019H34.0393C33.3683 38.9012 32.8243 38.3571 32.8236 37.6862V31.6078C32.8243 30.9368 33.3683 30.3928 34.0393 30.3921H40.1177C40.7886 30.3927 41.3327 30.9368 41.3334 31.6078V37.6862Z" fill="#343A40"/>
<path d="M38.2941 9.72548V3.64706C38.2931 2.67998 37.9084 1.75302 37.2246 1.06946C36.5411 0.385633 35.6141 0.000955182 34.647 0H9.11764C8.15056 0.00101762 7.2236 0.385668 6.54004 1.06946C5.85621 1.75294 5.47154 2.67998 5.47058 3.64706V9.72548C5.4716 10.6926 5.85625 11.6195 6.54004 12.3031C7.22352 12.9869 8.15056 13.3716 9.11764 13.3725H34.647C35.6141 13.3715 36.5411 12.9869 37.2246 12.3031C37.9085 11.6196 38.2931 10.6926 38.2941 9.72548ZM7.90195 9.72548V3.64706C7.90263 2.97612 8.4467 2.43207 9.11764 2.43137H34.647C35.318 2.43205 35.862 2.97612 35.8627 3.64706V9.72548C35.862 10.3964 35.318 10.9405 34.647 10.9412H9.11764C8.4467 10.9405 7.90265 10.3964 7.90195 9.72548Z" fill="#343A40"/>
<path d="M21.8823 15.196C21.211 15.196 20.6666 15.7405 20.6666 16.4117V21.9868L19.0947 20.4149C18.6202 19.9404 17.8502 19.9404 17.3757 20.4149C16.9011 20.8894 16.9011 21.6594 17.3757 22.134L21.0227 25.781C21.2507 26.009 21.5597 26.1372 21.8823 26.1372C22.2048 26.1372 22.5138 26.009 22.7418 25.781L26.3888 22.134C26.8634 21.6594 26.8634 20.8894 26.3888 20.4149C25.9143 19.9404 25.1443 19.9404 24.6698 20.4149L23.0979 21.9868V16.4117C23.0979 15.7405 22.5535 15.196 21.8822 15.196H21.8823Z" fill="#343A40"/>
</svg>
