<svg width="20" height="18" viewBox="0 0 20 18" fill="none" xmlns="http://www.w3.org/2000/svg">
<path d="M11.2501 4.88865C11.7279 4.14909 11.8929 3.26875 11.7126 2.42094C11.6287 2.0054 11.4516 1.61127 11.193 1.26459C10.9345 0.91792 10.6003 0.626597 10.2126 0.409877C8.63447 -0.468314 6.5251 0.117147 5.5251 1.70375L4.80322 2.8454L10.5282 6.0303L11.2501 4.88865ZM9.93135 3.88459L7.09072 2.30384C7.65947 1.60129 8.63447 1.34662 9.3751 1.75644C9.5621 1.86268 9.7227 2.00514 9.84612 2.17427C9.96954 2.3434 10.0529 2.53529 10.0907 2.73709C10.1682 3.12576 10.1124 3.52742 9.93135 3.88459Z" fill="#079F71"/>
<path d="M0.471875 15.7869L0.9625 16.0153L5.73438 13.6002L9.6875 7.37387L3.94375 4.18604L0 10.4153L0.025 15.0493C0.0269275 15.1976 0.0689205 15.343 0.147062 15.472C0.225204 15.601 0.336949 15.7093 0.471875 15.7869ZM4.53438 6.3259L7.4 7.91835L4.53438 12.4323L1.68437 13.8754L1.66875 10.831L4.53438 6.3259Z" fill="#079F71"/>
<path d="M19.1656 16.4399H0.834375C0.373562 16.4399 0 16.7892 0 17.2201C0 17.6509 0.373562 18.0002 0.834375 18.0002H19.1656C19.6264 18.0002 20 17.6509 20 17.2201C20 16.7892 19.6264 16.4399 19.1656 16.4399Z" fill="#079F71"/>
</svg>
