<svg width="99" height="106" viewBox="0 0 99 106" fill="none" xmlns="http://www.w3.org/2000/svg">
<rect x="1.27881" y="1" width="96.6506" height="103.983" rx="8" fill="white" stroke="#B8BBC1" stroke-width="2"/>
<line x1="29.9409" y1="82.9863" x2="43.2717" y2="82.9863" stroke="#D5D5D5" stroke-width="2" stroke-linecap="round"/>
<line x1="42.6055" y1="72.9878" x2="55.9363" y2="72.9878" stroke="#079F71" stroke-width="2" stroke-linecap="round"/>
<line x1="35.2734" y1="87.6523" x2="66.6013" y2="87.6523" stroke="#D5D5D5" stroke-width="2" stroke-linecap="round"/>
<line x1="48.6045" y1="82.9863" x2="61.9353" y2="82.9863" stroke="#D5D5D5" stroke-width="2" stroke-linecap="round"/>
<line x1="67.2683" y1="82.9863" x2="72.6004" y2="82.9863" stroke="#D5D5D5" stroke-width="2" stroke-linecap="round"/>
<path d="M0.278809 9C0.278809 4.02944 4.30825 0 9.27881 0H89.9294C94.8999 0 98.9294 4.02944 98.9294 9V17.3305H0.278809V9Z" fill="#B8BBC1"/>
<g clip-path="url(#clip0_2001_6283)">
<path d="M65.2754 38.9901C65.1154 38.8773 64.9174 38.8325 64.7245 38.8655C64.5316 38.8984 64.3596 39.0064 64.2462 39.1658C64.1327 39.3252 64.087 39.5231 64.1191 39.7161C64.1511 39.9091 64.2583 40.0816 64.4172 40.1958C64.7138 40.4321 64.9777 40.7069 65.2019 41.0128L49.6041 51.6476L34.0687 41.0554C34.3132 40.7328 34.5907 40.4366 34.8967 40.1716C35.05 40.049 35.1482 39.8706 35.1699 39.6756C35.1916 39.4806 35.1349 39.2849 35.0124 39.1317C34.8898 38.9785 34.7114 38.8802 34.5164 38.8585C34.3214 38.8369 34.1257 38.8935 33.9725 39.0161C33.8854 39.0855 31.8447 40.7432 31.8447 42.9237V62.163C31.8459 63.1439 32.2361 64.0843 32.9297 64.7779C33.6233 65.4715 34.5637 65.8617 35.5446 65.8628H63.6635C64.6444 65.8617 65.5848 65.4715 66.2785 64.7779C66.9721 64.0843 67.3622 63.1439 67.3634 62.163V42.9237C67.3634 40.4971 65.3606 39.0504 65.2754 38.9901Z" fill="#828CA2"/>
<path d="M38.5045 41.8137C38.6503 41.8137 38.7946 41.785 38.9293 41.7293C39.064 41.6735 39.1863 41.5917 39.2894 41.4887C39.3925 41.3856 39.4742 41.2632 39.53 41.1285C39.5858 40.9939 39.6145 40.8495 39.6145 40.7037V33.674H59.5937V40.7037C59.5937 40.8495 59.6224 40.9938 59.6782 41.1285C59.734 41.2632 59.8157 41.3855 59.9188 41.4886C60.0219 41.5917 60.1442 41.6734 60.2789 41.7292C60.4136 41.785 60.5579 41.8137 60.7037 41.8137C60.8494 41.8137 60.9938 41.785 61.1284 41.7292C61.2631 41.6734 61.3855 41.5917 61.4885 41.4886C61.5916 41.3855 61.6733 41.2632 61.7291 41.1285C61.7849 40.9938 61.8136 40.8495 61.8136 40.7037V33.3958C61.813 32.881 61.6082 32.3875 61.2442 32.0235C60.8802 31.6595 60.3867 31.4547 59.8719 31.4541H39.3362C38.8215 31.4547 38.3279 31.6595 37.9639 32.0235C37.5999 32.3875 37.3951 32.881 37.3945 33.3958V40.7037C37.3945 40.8495 37.4232 40.9939 37.479 41.1285C37.5347 41.2632 37.6165 41.3856 37.7196 41.4887C37.8227 41.5917 37.945 41.6735 38.0797 41.7293C38.2144 41.785 38.3587 41.8137 38.5045 41.8137Z" fill="#079F71"/>
</g>
<circle cx="11.6103" cy="9.33176" r="2.66623" fill="#828CA2"/>
<circle cx="18.9426" cy="9.33176" r="2.66623" fill="#828CA2"/>
<circle cx="26.2746" cy="9.33176" r="2.66623" fill="#828CA2"/>
<defs>
<clipPath id="clip0_2001_6283">
<rect width="35.9941" height="35.9941" fill="white" transform="translate(31.6069 30.6616)"/>
</clipPath>
</defs>
</svg>
