<svg width="108" height="108" viewBox="0 0 108 108" fill="none" xmlns="http://www.w3.org/2000/svg">
<path d="M54 93.375C53.3325 93.375 52.68 93.5729 52.125 93.9438C51.5699 94.3146 51.1374 94.8417 50.8819 95.4584C50.6265 96.0751 50.5596 96.7538 50.6899 97.4084C50.8201 98.0631 51.1415 98.6645 51.6135 99.1365C52.0855 99.6085 52.6869 99.9299 53.3416 100.06C53.9963 100.19 54.6749 100.124 55.2916 99.8681C55.9083 99.6126 56.4354 99.1801 56.8062 98.6251C57.1771 98.07 57.375 97.4175 57.375 96.75C57.3756 96.3066 57.2887 95.8675 57.1193 95.4577C56.9499 95.048 56.7013 94.6757 56.3878 94.3622C56.0743 94.0487 55.702 93.8001 55.2923 93.6307C54.8825 93.4613 54.4434 93.3744 54 93.375Z" fill="#828CA2"/>
<path d="M74.25 2.25H33.75C28.7794 2.25 24.75 6.27944 24.75 11.25V96.75C24.75 101.721 28.7794 105.75 33.75 105.75H74.25C79.2206 105.75 83.25 101.721 83.25 96.75V11.25C83.25 6.27944 79.2206 2.25 74.25 2.25Z" stroke="#828CA2" stroke-width="3" stroke-linecap="round" stroke-linejoin="round"/>
<path d="M30.6667 32C30.6667 29.7909 32.4576 28 34.6667 28H64.0001C66.2092 28 68.0001 29.7909 68.0001 32V53.4212C68.0001 55.5957 66.2629 57.3719 64.089 57.4202L39.6666 57.963C38.6115 57.9864 37.6223 58.4809 36.9702 59.3107L36.845 59.4701C34.8157 62.0529 30.6667 60.6179 30.6667 57.3333V32Z" fill="#079F71"/>
<path d="M32.5154 67.7012L38.5154 58.0762C38.6143 57.9175 38.6667 57.7342 38.6667 57.5472V57C38.6667 56.4477 38.219 56 37.6667 56H31.6667C31.1145 56 30.6667 56.4477 30.6667 57V67.1722C30.6667 68.1775 31.9836 68.5543 32.5154 67.7012Z" fill="#079F71"/>
<path d="M57.0835 47.2291L56.3751 46.1666C55.2418 44.4666 54.6751 42.4124 54.6751 40.3583C54.6751 38.1624 53.2585 36.3208 51.346 35.7541C51.1335 35.1874 50.5668 34.8333 50.0002 34.8333C49.4335 34.8333 48.8668 35.1874 48.6543 35.7541C46.7418 36.3208 45.3252 38.1624 45.3252 40.3583C45.3252 42.4124 44.7585 44.4666 43.6252 46.1666L42.9168 47.2291C42.6335 47.7249 42.9168 48.2916 43.4835 48.2916H56.446C57.0126 48.2916 57.3668 47.6541 57.0835 47.2291Z" stroke="white" stroke-width="1.5" stroke-miterlimit="10" stroke-linejoin="round"/>
<path d="M52.125 50.4167C52.125 51.6209 51.2042 52.5417 50 52.5417C48.7958 52.5417 47.875 51.6209 47.875 50.4167" stroke="white" stroke-width="1.5" stroke-miterlimit="10" stroke-linejoin="round"/>
</svg>
