<svg width="50" height="51" viewBox="0 0 50 51" fill="none" xmlns="http://www.w3.org/2000/svg">
<path d="M3.14645 14.4397C4.38223 14.514 5.62191 14.5519 6.83092 14.5525H6.83155C8.04025 14.5519 9.27978 14.514 10.5153 14.4397C11.0399 14.4087 11.5347 14.1853 11.9049 13.8123C12.2751 13.4392 12.4946 12.9427 12.5216 12.4179C12.5856 11.1975 12.6184 9.96818 12.6193 8.76306C12.6184 7.56014 12.5856 6.33115 12.5216 5.11058C12.4948 4.58567 12.2753 4.0891 11.9052 3.71594C11.535 3.34278 11.0402 3.11926 10.5155 3.08817C9.27977 3.01389 8.04009 2.97597 6.83045 2.97534C5.62167 2.97597 4.38214 3.01389 3.14668 3.08817C2.62205 3.11917 2.12728 3.34257 1.7571 3.7156C1.38691 4.08864 1.16731 4.58511 1.14034 5.10996C1.07644 6.32958 1.04358 7.55889 1.04272 8.76478C1.04358 9.96927 1.07644 11.1983 1.14034 12.4173C1.16718 12.9422 1.38669 13.4387 1.75684 13.8119C2.12699 14.1851 2.62177 14.4086 3.14645 14.4397ZM6.83147 12.3592C5.6834 12.3587 4.50513 12.3232 3.32803 12.2534C3.26779 11.0878 3.23681 9.91402 3.23595 8.76478C3.23681 7.61444 3.26779 6.44056 3.32803 5.27445C4.50474 5.20469 5.68293 5.1691 6.83076 5.16864C7.97876 5.16911 9.15694 5.20469 10.334 5.27445C10.3942 6.44007 10.4252 7.61382 10.426 8.76306C10.4252 9.9134 10.3942 11.0873 10.334 12.2534C9.15703 12.3232 7.97876 12.3587 6.83147 12.3592V12.3592Z" fill="#344563" stroke="#344563"/>
<path d="M10.5155 19.7255C9.27883 19.6512 8.03915 19.6133 6.83052 19.6128C5.62252 19.6133 4.38308 19.6512 3.14668 19.7255C2.62203 19.7565 2.12724 19.9799 1.75705 20.353C1.38686 20.726 1.16728 21.2225 1.14034 21.7474C1.07644 22.9669 1.04358 24.1962 1.04272 25.4022C1.04358 26.6069 1.07644 27.8357 1.14034 29.0546C1.16715 29.5795 1.38664 30.0761 1.75679 30.4493C2.12694 30.8225 2.62174 31.046 3.14644 31.0771C4.38316 31.1514 5.62284 31.1893 6.83099 31.1898H6.83146C8.03938 31.1893 9.27883 31.1514 10.5153 31.0771C11.04 31.0461 11.5347 30.8227 11.9049 30.4496C12.2751 30.0766 12.4947 29.5801 12.5216 29.0552C12.5855 27.8348 12.6184 26.6055 12.6193 25.4005C12.6184 24.1974 12.5855 22.9684 12.5216 21.748C12.4948 21.2231 12.2753 20.7265 11.9052 20.3533C11.535 19.9801 11.0402 19.7566 10.5155 19.7255Z" fill="#4FCEB7" stroke="#4FCEB7"/>
<path d="M10.5155 36.3631C9.27977 36.2888 8.04009 36.2509 6.83045 36.2502C5.62167 36.2509 4.38214 36.2888 3.14668 36.3631C2.62205 36.3941 2.12728 36.6175 1.75709 36.9905C1.38691 37.3635 1.16731 37.86 1.14034 38.3849C1.07644 39.6045 1.04358 40.8338 1.04272 42.0397C1.04358 43.2442 1.07644 44.4732 1.14034 45.6922C1.16718 46.2171 1.38669 46.7137 1.75684 47.0868C2.12699 47.46 2.62176 47.6835 3.14644 47.7146C4.38222 47.7889 5.6219 47.8268 6.83092 47.8274H6.83154C8.04024 47.8268 9.27977 47.7889 10.5153 47.7146C11.0399 47.6836 11.5347 47.4602 11.9049 47.0872C12.2751 46.7141 12.4946 46.2176 12.5216 45.6928C12.5855 44.4724 12.6184 43.2431 12.6193 42.038C12.6184 40.835 12.5855 39.6061 12.5216 38.3855C12.4948 37.8606 12.2753 37.364 11.9051 36.9908C11.535 36.6177 11.0402 36.3942 10.5155 36.3631ZM6.83146 45.6341C5.68339 45.6336 4.50512 45.5981 3.32802 45.5283C3.26778 44.3627 3.2368 43.1889 3.23594 42.0397C3.2368 40.8894 3.26778 39.7155 3.32802 38.5494C4.50473 38.4796 5.68292 38.444 6.83076 38.4435C7.97875 38.444 9.15693 38.4796 10.334 38.5494C10.3942 39.715 10.4252 40.8887 10.426 42.038C10.4252 43.1883 10.3942 44.3622 10.334 45.5283C9.15702 45.5981 7.97875 45.6336 6.83146 45.6341V45.6341Z" fill="#344563" stroke="#344563"/>
<path d="M47.6402 7.56543H21.2241C20.5621 7.56543 20.0255 8.10204 20.0255 8.76399C20.0255 9.42593 20.5621 9.96254 21.2241 9.96254H47.6402C48.3022 9.96254 48.8388 9.42593 48.8388 8.76399C48.8388 8.10204 48.3022 7.56543 47.6402 7.56543Z" fill="#344563" stroke="#344563"/>
<path d="M47.6402 40.8403H21.2241C20.5621 40.8403 20.0255 41.3769 20.0255 42.0389C20.0255 42.7008 20.5621 43.2374 21.2241 43.2374H47.6402C48.3022 43.2374 48.8388 42.7008 48.8388 42.0389C48.8388 41.3769 48.3022 40.8403 47.6402 40.8403Z" fill="#344563" stroke="#344563"/>
<path d="M26.6147 26.6H21.2708C20.9587 26.5912 20.6624 26.4611 20.4448 26.2373C20.2272 26.0135 20.1055 25.7136 20.1055 25.4014C20.1055 25.0893 20.2272 24.7894 20.4448 24.5656C20.6624 24.3418 20.9587 24.2117 21.2708 24.2029H26.6147C26.9267 24.2117 27.223 24.3418 27.4406 24.5656C27.6582 24.7894 27.78 25.0893 27.78 25.4014C27.78 25.7136 27.6582 26.0135 27.4406 26.2373C27.223 26.4611 26.9267 26.5912 26.6147 26.6Z" fill="#4FCEB7" stroke="#4FCEB7"/>
<path d="M37.2033 26.6H31.8594C31.5474 26.5912 31.251 26.4611 31.0334 26.2373C30.8158 26.0135 30.6941 25.7136 30.6941 25.4014C30.6941 25.0893 30.8158 24.7894 31.0334 24.5656C31.251 24.3418 31.5474 24.2117 31.8594 24.2029H37.2033C37.5153 24.2117 37.8116 24.3418 38.0293 24.5656C38.2469 24.7894 38.3686 25.0893 38.3686 25.4014C38.3686 25.7136 38.2469 26.0135 38.0293 26.2373C37.8116 26.4611 37.5153 26.5912 37.2033 26.6H37.2033Z" fill="#4FCEB7" stroke="#4FCEB7"/>
<path d="M47.792 26.6H42.448C42.136 26.5912 41.8397 26.4611 41.6221 26.2373C41.4045 26.0135 41.2827 25.7136 41.2827 25.4014C41.2827 25.0893 41.4045 24.7894 41.6221 24.5656C41.8397 24.3418 42.136 24.2117 42.448 24.2029H47.792C48.104 24.2117 48.4003 24.3418 48.6179 24.5656C48.8356 24.7894 48.9573 25.0893 48.9573 25.4014C48.9573 25.7136 48.8356 26.0135 48.6179 26.2373C48.4003 26.4611 48.104 26.5912 47.792 26.6H47.792Z" fill="#4FCEB7" stroke="#4FCEB7"/>
</svg>
