<svg width="16" height="20" viewBox="0 0 16 20" fill="none" xmlns="http://www.w3.org/2000/svg">
<path d="M14.9029 13.0703L14.2132 12.0357C13.1096 10.3804 12.5578 8.38015 12.5578 6.37992C12.5578 4.24175 11.1783 2.44844 9.31606 1.89665C9.10914 1.34487 8.55735 1 8.00557 1C7.45378 1 6.90199 1.34487 6.69507 1.89665C4.83279 2.44844 3.45333 4.24175 3.45333 6.37992C3.45333 8.38015 2.90154 10.3804 1.79797 12.0357L1.10823 13.0703C0.832341 13.5531 1.10823 14.1049 1.66002 14.1049H14.2821C14.8339 14.1049 15.1788 13.4842 14.9029 13.0703Z" stroke="#50F40C" stroke-width="2" stroke-miterlimit="10" stroke-linejoin="round"/>
<path d="M10.0748 16.1743C10.0748 17.3469 9.17812 18.2435 8.00557 18.2435C6.83302 18.2435 5.93637 17.3469 5.93637 16.1743" stroke="#50F40C" stroke-width="2" stroke-miterlimit="10" stroke-linejoin="round"/>
</svg>
