<svg width="44" height="44" viewBox="0 0 44 44" fill="none" xmlns="http://www.w3.org/2000/svg">
<path d="M32.8673 11.5182V0.709717H11.1328V11.5182C11.1328 16.5245 14.5182 20.7393 19.1243 22C14.5181 23.2608 11.1328 27.4756 11.1328 32.4819V43.2904H32.8672V32.4819C32.8672 27.4756 29.4818 23.2608 24.8757 22C29.4818 20.7393 32.8673 16.5244 32.8673 11.5182Z" fill="#74E2CD" fill-opacity="0.27"/>
<path d="M33.577 11.5182V0.709717H32.1576V11.5182C32.1576 16.0829 29.0861 20.1118 24.6885 21.3155C24.38 21.3999 24.1661 21.6802 24.1661 22C24.1661 22.3198 24.38 22.6001 24.6885 22.6845C29.0862 23.8882 32.1576 27.9169 32.1576 32.4817V43.2903H33.577V32.4818C33.577 27.949 30.9195 23.88 26.9198 22C30.9195 20.1201 33.577 16.0509 33.577 11.5182Z" fill="#344563"/>
<path d="M19.3118 21.3156C14.9139 20.1118 11.8424 16.083 11.8424 11.5182V0.709717H10.4231V11.5182C10.4231 16.0509 13.0805 20.12 17.0802 22C13.0805 23.88 10.4231 27.9491 10.4231 32.4818V43.2904H11.8424V32.4818C11.8424 27.917 14.9139 23.8883 19.3118 22.6845C19.6203 22.6001 19.8341 22.3198 19.8341 22C19.8341 21.6802 19.6203 21.3999 19.3118 21.3156Z" fill="#344563"/>
<path d="M33.8135 43.9999H10.1866C9.79464 43.9999 9.47693 43.6823 9.47693 43.2902C9.47693 42.8982 9.79464 42.5806 10.1866 42.5806H33.8135C34.2054 42.5806 34.5232 42.8982 34.5232 43.2902C34.5232 43.6823 34.2054 43.9999 33.8135 43.9999Z" fill="#463836"/>
<path d="M33.8135 1.41934H10.1866C9.79464 1.41934 9.47693 1.10172 9.47693 0.709672C9.47693 0.317625 9.79464 0 10.1866 0H33.8135C34.2054 0 34.5232 0.317625 34.5232 0.709672C34.5232 1.10172 34.2054 1.41934 33.8135 1.41934Z" fill="#463836"/>
<path d="M22.7098 28.839V19.5277C23.2929 19.4738 23.7454 19.3613 24.1263 19.2619C26.8269 18.558 28.8851 16.4634 29.6758 13.8779L14.3245 13.8777C15.1152 16.4633 17.1733 18.5579 19.874 19.2619C20.2549 19.3612 20.7074 19.4737 21.2905 19.5277V28.839C17.1892 29.1985 13.9717 32.6398 13.9717 36.8345V40.4516H30.0287V36.8345C30.0286 32.6398 26.8112 29.1985 22.7098 28.839Z" fill="#3DB4A0"/>
</svg>
