<svg width="21" height="18" viewBox="0 0 21 18" fill="none" xmlns="http://www.w3.org/2000/svg">
<path d="M1 6H20" stroke="#079F71" stroke-width="1.5" stroke-miterlimit="10" stroke-linecap="round" stroke-linejoin="round"/>
<path d="M4.21413 4.17777C3.99887 4.17777 3.85536 4.10602 3.71185 3.96251C3.56834 3.819 3.49658 3.67549 3.49658 3.46022C3.49658 3.24496 3.56834 3.10145 3.71185 2.95794L3.7836 2.88619C3.85536 2.88619 3.85536 2.81443 3.92711 2.81443C3.99887 2.74268 3.99887 2.74268 4.07062 2.74268C4.14238 2.74268 4.28588 2.74268 4.35764 2.74268C4.42939 2.74268 4.42939 2.74268 4.50115 2.81443C4.5729 2.81443 4.5729 2.88619 4.64466 2.88619L4.71641 2.95794C4.78817 3.0297 4.85992 3.10145 4.85992 3.1732C4.93168 3.24496 4.93168 3.38847 4.93168 3.46022C4.93168 3.53198 4.93168 3.67549 4.85992 3.74724C4.85992 3.819 4.78817 3.89075 4.71641 3.96251C4.5729 4.10602 4.42939 4.17777 4.21413 4.17777Z" fill="#079F71"/>
<path d="M6.36647 4.17775C6.15121 4.17775 6.0077 4.10599 5.86419 3.96249C5.72068 3.81898 5.64893 3.67547 5.64893 3.4602C5.64893 3.38845 5.64893 3.24494 5.72068 3.17318C5.79244 3.10143 5.79244 3.02967 5.86419 2.95792C5.93595 2.88616 6.0077 2.81441 6.07945 2.81441C6.36647 2.6709 6.65349 2.74265 6.86876 2.95792C6.94051 3.02967 7.01227 3.10143 7.01227 3.17318C7.08402 3.24494 7.08402 3.38845 7.08402 3.4602C7.08402 3.67547 7.01227 3.81898 6.86876 3.96249C6.72525 4.10599 6.58174 4.17775 6.36647 4.17775Z" fill="#079F71"/>
<path d="M8.51931 4.17777C8.44755 4.17777 8.30404 4.17777 8.23229 4.10602C8.16053 4.03426 8.08878 4.03426 8.01702 3.96251C7.94527 3.89075 7.87351 3.819 7.87351 3.74724C7.80176 3.67549 7.80176 3.53198 7.80176 3.46022C7.80176 3.38847 7.80176 3.24496 7.87351 3.1732C7.94527 3.10145 7.94527 3.0297 8.01702 2.95794C8.30404 2.67092 8.73457 2.67092 9.02159 2.95794C9.09334 3.0297 9.1651 3.10145 9.1651 3.1732C9.23685 3.24496 9.23685 3.38847 9.23685 3.46022C9.23685 3.53198 9.23685 3.67549 9.1651 3.74724C9.09334 3.819 9.09334 3.89075 9.02159 3.96251C8.87808 4.10602 8.73457 4.17777 8.51931 4.17777Z" fill="#079F71"/>
<path d="M18.5385 1H2.46154C1.65769 1 1 1.65455 1 2.45455V15.5455C1 16.3455 1.65769 17 2.46154 17H18.5385C19.3423 17 20 16.3455 20 15.5455V2.45455C20 1.65455 19.3423 1 18.5385 1Z" stroke="#079F71" stroke-width="1.5" stroke-miterlimit="10" stroke-linecap="round" stroke-linejoin="round"/>
<path d="M7 9L5 11.5L7 14" stroke="#079F71" stroke-width="1.5" stroke-miterlimit="10" stroke-linecap="round" stroke-linejoin="round"/>
<path d="M14 9L16 11.5L14 14" stroke="#079F71" stroke-width="1.5" stroke-miterlimit="10" stroke-linecap="round" stroke-linejoin="round"/>
<path d="M12 8L9 14" stroke="#079F71" stroke-width="1.5" stroke-miterlimit="10" stroke-linecap="round" stroke-linejoin="round"/>
</svg>
