<svg width="110" height="110" viewBox="0 0 110 110" fill="none" xmlns="http://www.w3.org/2000/svg">
<path d="M55 95.1043C54.3201 95.1043 53.6555 95.3059 53.0902 95.6836C52.5249 96.0613 52.0843 96.5982 51.8242 97.2263C51.564 97.8544 51.4959 98.5456 51.6286 99.2124C51.7612 99.8792 52.0886 100.492 52.5693 100.972C53.0501 101.453 53.6626 101.781 54.3294 101.913C54.9962 102.046 55.6874 101.978 56.3155 101.718C56.9436 101.457 57.4805 101.017 57.8582 100.452C58.2359 99.8862 58.4375 99.2216 58.4375 98.5418C58.4381 98.0902 58.3496 97.6429 58.1771 97.2256C58.0045 96.8082 57.7513 96.429 57.432 96.1097C57.1127 95.7904 56.7335 95.5372 56.3162 95.3647C55.8989 95.1921 55.4516 95.1036 55 95.1043Z" fill="#828CA2"/>
<path d="M75.6249 2.29175H34.3749C29.3123 2.29175 25.2083 6.3958 25.2083 11.4584V98.5417C25.2083 103.604 29.3123 107.708 34.3749 107.708H75.6249C80.6875 107.708 84.7916 103.604 84.7916 98.5417V11.4584C84.7916 6.3958 80.6875 2.29175 75.6249 2.29175Z" stroke="#828CA2" stroke-width="3" stroke-linecap="round" stroke-linejoin="round"/>
<path d="M45.2816 53.1326C39.1195 53.1326 34.0779 58.1742 34.0779 64.3363V81.1418V88.1441C39.2596 83.6627 45.8418 81.1418 52.704 81.1418H59.2862C65.4482 81.1418 70.4899 76.1002 70.4899 69.9381V64.3363C70.4899 58.1742 65.4482 53.1326 59.2862 53.1326H45.2816Z" fill="#079F71"/>
<path d="M44.6311 64.6719C44.5913 64.2997 44.4237 64.0099 44.1283 63.8026C43.8357 63.5952 43.455 63.4915 42.9862 63.4915C42.6567 63.4915 42.374 63.5412 42.1382 63.6406C41.9024 63.7401 41.722 63.875 41.597 64.0455C41.472 64.2159 41.4081 64.4105 41.4053 64.6293C41.4053 64.8111 41.4465 64.9687 41.5288 65.1023C41.6141 65.2358 41.7291 65.3494 41.874 65.4432C42.0189 65.5341 42.1794 65.6108 42.3555 65.6733C42.5317 65.7358 42.7092 65.7884 42.8882 65.831L43.7064 66.0355C44.0359 66.1122 44.3527 66.2159 44.6567 66.3466C44.9635 66.4773 45.2376 66.642 45.4791 66.8409C45.7234 67.0398 45.9166 67.2798 46.0587 67.5611C46.2007 67.8423 46.2717 68.1719 46.2717 68.5497C46.2717 69.0611 46.1411 69.5114 45.8797 69.9006C45.6183 70.2869 45.2405 70.5895 44.7462 70.8082C44.2547 71.0241 43.6595 71.1321 42.9607 71.1321C42.2817 71.1321 41.6922 71.027 41.1922 70.8168C40.695 70.6065 40.3058 70.2997 40.0246 69.8963C39.7462 69.4929 39.5956 69.0014 39.5729 68.4219H41.1283C41.151 68.7259 41.2447 68.9787 41.4095 69.1804C41.5743 69.3821 41.7888 69.5327 42.053 69.6321C42.32 69.7315 42.6183 69.7812 42.9479 69.7812C43.2916 69.7812 43.5928 69.7301 43.8513 69.6278C44.1126 69.5227 44.3172 69.3778 44.4649 69.1932C44.6126 69.0057 44.6879 68.7869 44.6908 68.5369C44.6879 68.3097 44.6212 68.1222 44.4905 67.9744C44.3598 67.8239 44.1766 67.6989 43.9408 67.5994C43.7078 67.4972 43.4351 67.4062 43.1226 67.3267L42.1297 67.071C41.4109 66.8864 40.8428 66.6065 40.4251 66.2315C40.0104 65.8537 39.803 65.3523 39.803 64.7273C39.803 64.2131 39.9422 63.7628 40.2206 63.3764C40.5019 62.9901 40.884 62.6903 41.3669 62.4773C41.8499 62.2614 42.3967 62.1534 43.0075 62.1534C43.6269 62.1534 44.1695 62.2614 44.6354 62.4773C45.1041 62.6903 45.472 62.9872 45.7391 63.3679C46.0061 63.7457 46.1439 64.1804 46.1524 64.6719H44.6311ZM47.6812 62.2727H49.6158L52.2068 68.5966H52.309L54.8999 62.2727H56.8346V71H55.3175V65.0043H55.2366L52.8247 70.9744H51.6911L49.2792 64.9915H49.1982V71H47.6812V62.2727ZM63.2991 64.6719C63.2593 64.2997 63.0917 64.0099 62.7962 63.8026C62.5036 63.5952 62.1229 63.4915 61.6542 63.4915C61.3247 63.4915 61.042 63.5412 60.8062 63.6406C60.5704 63.7401 60.39 63.875 60.265 64.0455C60.14 64.2159 60.0761 64.4105 60.0732 64.6293C60.0732 64.8111 60.1144 64.9687 60.1968 65.1023C60.282 65.2358 60.3971 65.3494 60.542 65.4432C60.6869 65.5341 60.8474 65.6108 61.0235 65.6733C61.1997 65.7358 61.3772 65.7884 61.5562 65.831L62.3744 66.0355C62.7039 66.1122 63.0207 66.2159 63.3247 66.3466C63.6315 66.4773 63.9056 66.642 64.1471 66.8409C64.3914 67.0398 64.5846 67.2798 64.7266 67.5611C64.8687 67.8423 64.9397 68.1719 64.9397 68.5497C64.9397 69.0611 64.809 69.5114 64.5477 69.9006C64.2863 70.2869 63.9085 70.5895 63.4141 70.8082C62.9227 71.0241 62.3275 71.1321 61.6286 71.1321C60.9497 71.1321 60.3602 71.027 59.8602 70.8168C59.363 70.6065 58.9738 70.2997 58.6925 69.8963C58.4141 69.4929 58.2636 69.0014 58.2408 68.4219H59.7962C59.819 68.7259 59.9127 68.9787 60.0775 69.1804C60.2423 69.3821 60.4568 69.5327 60.721 69.6321C60.988 69.7315 61.2863 69.7812 61.6158 69.7812C61.9596 69.7812 62.2607 69.7301 62.5193 69.6278C62.7806 69.5227 62.9852 69.3778 63.1329 69.1932C63.2806 69.0057 63.3559 68.7869 63.3587 68.5369C63.3559 68.3097 63.2891 68.1222 63.1585 67.9744C63.0278 67.8239 62.8445 67.6989 62.6087 67.5994C62.3758 67.4972 62.1031 67.4062 61.7906 67.3267L60.7977 67.071C60.0789 66.8864 59.5107 66.6065 59.0931 66.2315C58.6783 65.8537 58.471 65.3523 58.471 64.7273C58.471 64.2131 58.6102 63.7628 58.8886 63.3764C59.1698 62.9901 59.5519 62.6903 60.0349 62.4773C60.5178 62.2614 61.0647 62.1534 61.6755 62.1534C62.2948 62.1534 62.8374 62.2614 63.3033 62.4773C63.7721 62.6903 64.14 62.9872 64.407 63.3679C64.6741 63.7457 64.8119 64.1804 64.8204 64.6719H63.2991Z" fill="white"/>
</svg>
