<svg width="98" height="98" viewBox="0 0 98 98" fill="none" xmlns="http://www.w3.org/2000/svg">
<g clip-path="url(#clip0_399_5948)">
<path d="M93.1 3.91992H4.9C3.60044 3.91992 2.3541 4.43617 1.43518 5.3551C0.516249 6.27403 0 7.52036 0 8.81992L0 69.5799C0 70.8795 0.516249 72.1258 1.43518 73.0447C2.3541 73.9637 3.60044 74.4799 4.9 74.4799H27.44V86.2399H19.6V90.1599H78.4V86.2399H70.56V74.4799H93.1C94.3996 74.4799 95.6459 73.9637 96.5648 73.0447C97.4838 72.1258 98 70.8795 98 69.5799V8.81992C98 7.52036 97.4838 6.27403 96.5648 5.3551C95.6459 4.43617 94.3996 3.91992 93.1 3.91992ZM66.64 86.2399H31.36V74.4799H66.64V86.2399ZM94.08 69.5799C94.08 69.8398 93.9768 70.0891 93.793 70.2729C93.6092 70.4567 93.3599 70.5599 93.1 70.5599H4.9C4.64009 70.5599 4.39082 70.4567 4.20704 70.2729C4.02325 70.0891 3.92 69.8398 3.92 69.5799V58.7999H94.08V69.5799ZM94.08 54.8799H3.92V8.81992C3.92 8.56001 4.02325 8.31074 4.20704 8.12696C4.39082 7.94317 4.64009 7.83992 4.9 7.83992H93.1C93.3599 7.83992 93.6092 7.94317 93.793 8.12696C93.9768 8.31074 94.08 8.56001 94.08 8.81992V54.8799Z" fill="#828CA2"/>
<rect x="50.8147" y="15.7285" width="43.5556" height="14.5185" fill="#079F71"/>
</g>
<defs>
<clipPath id="clip0_399_5948">
<rect width="98" height="98" fill="white"/>
</clipPath>
</defs>
</svg>
