<svg width="107" height="18" viewBox="0 0 107 18" fill="none" xmlns="http://www.w3.org/2000/svg">
<path d="M2.7401e-06 11.4171C2.7401e-06 9.46588 0.429474 7.91209 1.28842 6.75569C2.14736 5.59929 3.32193 5.02077 4.81211 5.02012C6.00818 5.02012 6.99584 5.47521 7.77508 6.38537V0.00390625H11.0673V17.7676H8.1043L7.94491 16.4381C7.12835 17.4791 6.07649 17.9996 4.78934 17.9996C3.34469 17.9996 2.18499 17.4195 1.31024 16.2592C0.435483 15.099 -0.00126227 13.4849 2.7401e-06 11.4171ZM3.27986 11.6665C3.27986 12.8403 3.48037 13.7402 3.88138 14.3661C4.28239 14.992 4.86524 15.3046 5.62994 15.3039C6.64195 15.3039 7.357 14.8676 7.77508 13.9948V9.04818C7.36649 8.17476 6.65903 7.73837 5.65271 7.73901C4.07081 7.73901 3.27986 9.04818 3.27986 11.6665Z" fill="white"/>
<path d="M13.1025 11.3942C13.1025 10.1527 13.3372 9.04629 13.8065 8.07489C14.2456 7.13447 14.9494 6.34853 15.8283 5.81721C16.7138 5.28413 17.7375 5.01791 18.8995 5.01856C20.556 5.01856 21.9086 5.53423 22.9573 6.56558C24.006 7.59693 24.5904 9.00052 24.7106 10.7764L24.7334 11.633C24.7334 13.5571 24.2087 15.0993 23.1594 16.2596C22.1101 17.4199 20.6989 18 18.926 18C17.155 18 15.7417 17.4215 14.686 16.2644C13.6304 15.1074 13.1025 13.5343 13.1025 11.5451V11.3942ZM16.3833 11.6321C16.3833 12.8213 16.6028 13.7309 17.0418 14.3606C17.4807 14.9904 18.1088 15.305 18.926 15.3043C19.7205 15.3043 20.3409 14.9936 20.7875 14.3722C21.234 13.7508 21.4554 12.7562 21.4516 11.3884C21.4516 10.2223 21.2283 9.31992 20.7818 8.68113C20.3352 8.04234 19.7072 7.72197 18.8976 7.72004C18.0949 7.72004 17.4744 8.03847 17.0361 8.67533C16.5978 9.31218 16.3789 10.2978 16.3796 11.6321H16.3833Z" fill="white"/>
<path d="M30.6804 2.1748V5.25144H32.781V7.70444H30.6804V13.9505C30.6804 14.414 30.7677 14.7456 30.9423 14.9455C31.1168 15.1453 31.4495 15.2455 31.9404 15.2462C32.2637 15.2494 32.5867 15.2226 32.9053 15.1659V17.6992C32.2617 17.8996 31.5924 18.0009 30.9195 17.9999C28.6191 17.9999 27.4461 16.8161 27.4005 14.4485V7.70444H25.6064V5.25144H27.4005V2.1748H30.6804Z" fill="white"/>
<path d="M37.6848 5.25159L37.7872 6.65165C38.6576 5.56422 39.8343 5.02051 41.3176 5.02051C42.8988 5.02051 43.9845 5.65672 44.5747 6.92915C45.438 5.65672 46.6679 5.02051 48.2644 5.02051C49.5926 5.02051 50.5838 5.41564 51.2378 6.20591C51.8918 6.99618 52.2172 8.18578 52.2141 9.7747V17.768H48.9228V9.7863C48.9228 9.07725 48.7865 8.55867 48.5139 8.23058C48.2413 7.90248 47.7593 7.73875 47.068 7.7394C46.0851 7.7394 45.4042 8.21736 45.0253 9.17329L45.0367 17.768H41.7597V9.7979C41.7597 9.07338 41.6199 8.54901 41.3403 8.22478C41.0608 7.90055 40.5839 7.7394 39.9096 7.74133C38.9792 7.74133 38.3059 8.13453 37.8897 8.92094V17.768H34.6089V5.25159H37.6848Z" fill="white"/>
<path d="M54.2236 11.3942C54.2236 10.1527 54.458 9.04629 54.9267 8.07489C55.3674 7.13406 56.0728 6.34816 56.9532 5.81721C57.8343 5.28413 58.8577 5.01791 60.0234 5.01856C61.6812 5.01856 63.0341 5.53423 64.0822 6.56558C65.1303 7.59692 65.7147 9.00052 65.8355 10.7764L65.8583 11.633C65.8583 13.5533 65.3323 15.0935 64.2805 16.2538C63.2286 17.4141 61.8172 17.9942 60.0462 17.9942C58.2752 17.9942 56.8621 17.4157 55.8071 16.2586C54.7521 15.1016 54.2243 13.5285 54.2236 11.5392V11.3942ZM57.5044 11.6321C57.5044 12.8213 57.7239 13.7309 58.1629 14.3606C58.6018 14.9904 59.2299 15.305 60.0471 15.3043C60.8422 15.3043 61.4627 14.9936 61.9086 14.3722C62.3545 13.7508 62.5778 12.7562 62.5784 11.3884C62.5784 10.2223 62.3551 9.31992 61.9086 8.68113C61.462 8.04234 60.834 7.72197 60.0243 7.72004C59.223 7.72004 58.6025 8.03847 58.1629 8.67533C57.7233 9.31218 57.5038 10.2978 57.5044 11.6321Z" fill="white"/>
<path d="M78.9462 11.6259C78.9462 13.6305 78.5259 15.194 77.6853 16.3162C76.8447 17.4385 75.672 17.9996 74.1673 17.9996C72.8352 17.9996 71.772 17.4791 70.9776 16.4381L70.8296 17.7675H67.8789V0H71.1588V6.37373C71.9178 5.4713 72.913 5.02008 74.1445 5.02008C75.6423 5.02008 76.8172 5.5812 77.6692 6.70344C78.5211 7.82567 78.9468 9.40493 78.9462 11.4412V11.6259ZM75.6654 11.3822C75.6654 10.1175 75.4687 9.19414 75.0752 8.61208C74.6818 8.03001 74.0952 7.73994 73.3153 7.74188C72.2717 7.74188 71.5528 8.17762 71.1588 9.04911V13.988C71.5604 14.8678 72.2878 15.3075 73.3409 15.3068C74.394 15.3062 75.0898 14.7741 75.4282 13.7105C75.5863 13.2 75.6654 12.4239 75.6654 11.3822Z" fill="white"/>
<path d="M80.9432 2.01208C80.936 1.78201 80.9762 1.55297 81.0614 1.33977C81.1465 1.12657 81.2747 0.933979 81.4375 0.77446C81.7671 0.452164 82.2152 0.291016 82.7819 0.291016C83.3486 0.291016 83.7952 0.452164 84.1216 0.77446C84.443 1.10595 84.6228 1.55352 84.6217 2.01956C84.6206 2.48559 84.4388 2.9323 84.1159 3.26226C83.7794 3.58456 83.3347 3.74571 82.7819 3.74571C82.2291 3.74571 81.7863 3.58456 81.4536 3.26226C81.2863 3.10278 81.1542 2.90879 81.0662 2.69322C80.9782 2.47766 80.9363 2.24545 80.9432 2.01208ZM84.428 17.7724H81.1358V5.25115H84.428V17.7724Z" fill="white"/>
<path d="M90.593 17.7675H87.3008V0H90.593V17.7675Z" fill="white"/>
<path d="M98.9464 17.9991C97.1456 17.9991 95.6795 17.436 94.5479 16.3099C93.4164 15.1838 92.8506 13.6842 92.8506 11.811V11.4871C92.8506 10.2301 93.089 9.10593 93.5659 8.11455C94.0063 7.16517 94.7111 6.36888 95.5925 5.82496C96.4666 5.28801 97.4635 5.01986 98.583 5.02051C100.264 5.02051 101.586 5.56035 102.551 6.64005C103.515 7.71974 103.996 9.25 103.994 11.2308V12.5961H96.1731C96.2788 13.4128 96.5985 14.068 97.1323 14.5618C97.6662 15.0555 98.3414 15.3024 99.1579 15.3024C100.423 15.3024 101.411 14.8357 102.121 13.9023L103.734 15.7394C103.224 16.4635 102.534 17.0365 101.736 17.3996C100.86 17.8053 99.908 18.0099 98.9464 17.9991ZM98.5669 7.71523C97.916 7.71523 97.3882 7.94084 96.9834 8.39205C96.5786 8.84326 96.3221 9.48528 96.2139 10.3181H100.777V10.0503C100.761 9.3064 100.565 8.73143 100.186 8.32533C99.8082 7.91924 99.2699 7.71587 98.5716 7.71523H98.5669Z" fill="white"/>
<path d="M104.923 2.12809H104.596V3.036H104.373V2.12809H104.05V1.94922H104.92L104.923 2.12809Z" fill="white"/>
<path d="M105.337 1.94922L105.612 2.73917L105.885 1.94922H106.169V3.0389H105.948V2.7411L105.97 2.22672L105.686 3.0389H105.535L105.25 2.22768L105.273 2.7411V3.0389H105.053V1.94922H105.337Z" fill="white"/>
<path d="M82.7413 3.88316C83.7892 3.88316 84.6388 3.06067 84.6388 2.04607C84.6388 1.03148 83.7892 0.208984 82.7413 0.208984C81.6933 0.208984 80.8438 1.03148 80.8438 2.04607C80.8438 3.06067 81.6933 3.88316 82.7413 3.88316Z" fill="#FFDD30"/>
</svg>
