<svg width="44" height="42" viewBox="0 0 44 42" fill="none" xmlns="http://www.w3.org/2000/svg">
<path d="M24.9215 27.9606H18.8431C17.876 27.9616 16.9491 28.3462 16.2655 29.03C15.5817 29.7135 15.197 30.6406 15.196 31.6076V37.6861C15.1971 38.6531 15.5817 39.5801 16.2655 40.2637C16.949 40.9475 17.876 41.3322 18.8431 41.3331H24.9215C25.8886 41.3321 26.8156 40.9474 27.4991 40.2637C28.183 39.5802 28.5676 38.6531 28.5686 37.6861V31.6076C28.5676 30.6406 28.1829 29.7136 27.4991 29.03C26.8156 28.3462 25.8886 27.9615 24.9215 27.9606ZM26.1372 37.6861C26.1365 38.357 25.5925 38.901 24.9215 38.9017H18.8431C18.1722 38.9011 17.6281 38.357 17.6274 37.6861V31.6076C17.6281 30.9367 18.1722 30.3926 18.8431 30.3919H24.9215C25.5925 30.3926 26.1365 30.9367 26.1372 31.6076V37.6861Z" fill="#343A40"/>
<path d="M9.72548 27.9606H3.64706C2.67998 27.9616 1.75302 28.3462 1.06946 29.03C0.385633 29.7135 0.000955182 30.6406 0 31.6076V37.6861C0.00101762 38.6531 0.385668 39.5801 1.06946 40.2637C1.75294 40.9475 2.67998 41.3322 3.64706 41.3331H9.72548C10.6926 41.3321 11.6195 40.9474 12.3031 40.2637C12.9869 39.5802 13.3716 38.6531 13.3725 37.6861V31.6076C13.3715 30.6406 12.9869 29.7136 12.3031 29.03C11.6196 28.3462 10.6926 27.9615 9.72548 27.9606ZM10.9412 37.6861C10.9405 38.357 10.3964 38.901 9.72548 38.9017H3.64706C2.97612 38.9011 2.43207 38.357 2.43137 37.6861V31.6076C2.43205 30.9367 2.97612 30.3926 3.64706 30.3919H9.72548C10.3964 30.3926 10.9405 30.9367 10.9412 31.6076V37.6861Z" fill="#6495ED"/>
<path d="M40.1177 27.9606H34.0393C33.0722 27.9616 32.1452 28.3462 31.4617 29.03C30.7778 29.7135 30.3932 30.6406 30.3922 31.6076V37.6861C30.3932 38.6531 30.7779 39.5801 31.4617 40.2637C32.1452 40.9475 33.0722 41.3322 34.0393 41.3331H40.1177C41.0848 41.3321 42.0117 40.9474 42.6953 40.2637C43.3791 39.5802 43.7638 38.6531 43.7648 37.6861V31.6076C43.7637 30.6406 43.3791 29.7136 42.6953 29.03C42.0118 28.3462 41.0848 27.9615 40.1177 27.9606ZM41.3334 37.6861C41.3327 38.357 40.7886 38.901 40.1177 38.9017H34.0393C33.3683 38.9011 32.8243 38.357 32.8236 37.6861V31.6076C32.8243 30.9367 33.3683 30.3926 34.0393 30.3919H40.1177C40.7886 30.3926 41.3327 30.9367 41.3334 31.6076V37.6861Z" fill="#343A40"/>
<path d="M38.2941 9.72548V3.64706C38.2931 2.67998 37.9084 1.75302 37.2246 1.06946C36.5411 0.385633 35.6141 0.000955182 34.647 0H9.11764C8.15056 0.00101762 7.2236 0.385668 6.54004 1.06946C5.85621 1.75294 5.47154 2.67998 5.47058 3.64706V9.72548C5.4716 10.6926 5.85625 11.6195 6.54004 12.3031C7.22352 12.9869 8.15056 13.3716 9.11764 13.3725H34.647C35.6141 13.3715 36.5411 12.9869 37.2246 12.3031C37.9085 11.6196 38.2931 10.6926 38.2941 9.72548ZM7.90195 9.72548V3.64706C7.90263 2.97612 8.4467 2.43207 9.11764 2.43137H34.647C35.318 2.43205 35.862 2.97612 35.8627 3.64706V9.72548C35.862 10.3964 35.318 10.9405 34.647 10.9412H9.11764C8.4467 10.9405 7.90265 10.3964 7.90195 9.72548Z" fill="#343A40"/>
<path d="M21.8823 15.1962C21.211 15.1962 20.6666 15.7406 20.6666 16.4119V21.9869L19.0947 20.415C18.6202 19.9405 17.8502 19.9405 17.3757 20.415C16.9011 20.8896 16.9011 21.6595 17.3757 22.1341L21.0227 25.7811C21.2507 26.0091 21.5597 26.1373 21.8823 26.1373C22.2048 26.1373 22.5138 26.0091 22.7418 25.7811L26.3888 22.1341C26.8634 21.6596 26.8634 20.8896 26.3888 20.415C25.9143 19.9405 25.1443 19.9405 24.6698 20.415L23.0979 21.9869V16.4119C23.0979 15.7406 22.5535 15.1962 21.8822 15.1962H21.8823Z" fill="#343A40"/>
</svg>
