<svg width="28" height="30" viewBox="0 0 28 30" fill="none" xmlns="http://www.w3.org/2000/svg">
<path d="M13.6958 16.3563L13.6945 16.3557L3.69598 11.5618L13.6958 16.3563ZM13.6958 16.3563C13.7906 16.4011 13.8927 16.4268 14 16.4268C14.1044 16.4268 14.2078 16.4035 14.3029 16.3588L14.3029 16.3588L14.3048 16.3579L24.3033 11.5621C24.3035 11.5621 24.3036 11.562 24.3038 11.5619M13.6958 16.3563L24.3038 11.5619M3.25003 10.8052L3.25003 10.8051C3.25579 10.4936 3.43275 10.1897 3.72471 10.0672C3.72498 10.0671 3.72525 10.067 3.72553 10.0669L13.7242 5.80676L13.7257 5.80609L13.7257 5.8061C13.8113 5.77035 13.9034 5.75 14 5.75C14.0956 5.75 14.1885 5.77027 14.2742 5.8061L14.2758 5.80674L14.2758 5.80675L24.2753 10.066L24.2758 10.0662C24.5693 10.192 24.7439 10.4886 24.7499 10.8029M3.25003 10.8052L24.7499 10.8037C24.7499 10.8034 24.7499 10.8032 24.7499 10.8029M3.25003 10.8052C3.24426 11.1214 3.40897 11.4245 3.6957 11.5617L3.25003 10.8052ZM24.7499 10.8029C24.7574 11.1204 24.5924 11.4248 24.3038 11.5619M24.7499 10.8029L24.3038 11.5619M13.9758 14.7154L5.94452 10.8645L14 7.43348L22.054 10.8638L13.9758 14.7154Z" fill="#FFFFFF" stroke="#FFFFFF" stroke-width="0.5"/>
<path d="M3.69495 16.3028L3.69574 16.3032L13.8919 21.1917L14 21.2435L14.1081 21.1917L24.3043 16.3032L24.3049 16.3029C24.6892 16.1175 24.8419 15.6421 24.6932 15.2518C24.5826 14.9593 24.3169 14.75 24.0002 14.75C23.8942 14.75 23.7913 14.7737 23.6935 14.8213C23.6931 14.8215 23.6927 14.8217 23.6923 14.8219L13.9765 19.4561L4.308 14.8214C4.30789 14.8213 4.30778 14.8212 4.30766 14.8212C4.21247 14.7753 4.10981 14.75 4.00192 14.75C3.68408 14.75 3.41833 14.9612 3.3072 15.251L3.3072 15.251L3.30687 15.2519C3.15898 15.6418 3.31136 16.1172 3.69495 16.3028Z" fill="#FFFFFF" stroke="#FFFFFF" stroke-width="0.5"/>
<path d="M3.69468 21.3012L3.69468 21.3012C3.31154 21.1152 3.15762 20.6409 3.30723 20.251L3.69468 21.3012ZM3.69468 21.3012L3.69574 21.3017M3.69468 21.3012L3.69574 21.3017M3.69574 21.3017L13.8919 26.1917L14 26.2435L14.1082 26.1917L24.3051 21.3017L24.3053 21.3016C24.6893 21.1169 24.8419 20.6411 24.6931 20.2516C24.5829 19.9618 24.3179 19.75 24.0003 19.75C23.8916 19.75 23.7887 19.7764 23.6969 19.819L23.6969 19.819L23.6945 19.8201L13.9765 24.4561L4.30743 19.8203L4.30744 19.8203M3.69574 21.3017L4.30744 19.8203M4.30744 19.8203L4.30587 19.8196M4.30744 19.8203L4.30587 19.8196M4.30587 19.8196C4.21184 19.7753 4.10985 19.75 4.00195 19.75C3.68413 19.75 3.41838 19.9612 3.30725 20.2509L4.30587 19.8196Z" fill="#FFFFFF" stroke="#FFFFFF" stroke-width="0.5"/>
</svg>
