<svg width="23" height="21" viewBox="0 0 23 21"   xmlns="http://www.w3.org/2000/svg">
<path d="M12.9373 5.70347C13.4869 4.84064 13.6766 3.81358 13.4692 2.82447C13.3727 2.33967 13.1691 1.87985 12.8717 1.4754C12.5744 1.07095 12.1901 0.731071 11.7442 0.478231C9.92938 -0.546326 7.50359 0.136712 6.35359 1.98774L5.52344 3.31967L12.1072 7.03539L12.9373 5.70347ZM11.4208 4.53206L8.15406 2.68786C8.80813 1.86821 9.92938 1.57109 10.7811 2.04922C10.9961 2.17316 11.1808 2.33937 11.3228 2.53669C11.4647 2.73401 11.5606 2.95788 11.6041 3.19331C11.6932 3.64676 11.629 4.11537 11.4208 4.53206Z" fill="#6495ED"/>
<path d="M0.542656 18.4182L1.10687 18.6846L6.59453 15.867L11.1406 8.60293L4.53531 4.88379L0 12.1513L0.02875 17.5576C0.0309666 17.7306 0.0792586 17.9002 0.169122 18.0507C0.258985 18.2012 0.387492 18.3276 0.542656 18.4182ZM5.21453 7.38029L8.51 9.23816L5.21453 14.5044L1.93703 16.1881L1.91906 12.6363L5.21453 7.38029Z" fill="#6495ED"/>
<path d="M22.0405 19.1797H0.959531C0.429597 19.1797 0 19.5872 0 20.0898C0 20.5925 0.429597 21 0.959531 21H22.0405C22.5704 21 23 20.5925 23 20.0898C23 19.5872 22.5704 19.1797 22.0405 19.1797Z" fill="#6495ED"/>
</svg>
