<svg width="99" height="106" viewBox="0 0 99 106" fill="none" xmlns="http://www.w3.org/2000/svg">
<rect x="1.27881" y="1" width="96.6506" height="103.983" rx="8" fill="white" stroke="#B8BBC1" stroke-width="2"/>
<line x1="29.9409" y1="82.9863" x2="43.2717" y2="82.9863" stroke="#D5D5D5" stroke-width="2" stroke-linecap="round"/>
<line x1="42.6056" y1="72.9878" x2="55.9364" y2="72.9878" stroke="#6495ED" stroke-width="2" stroke-linecap="round"/>
<line x1="35.2733" y1="87.6521" x2="66.6012" y2="87.6521" stroke="#D5D5D5" stroke-width="2" stroke-linecap="round"/>
<line x1="48.6045" y1="82.9863" x2="61.9353" y2="82.9863" stroke="#D5D5D5" stroke-width="2" stroke-linecap="round"/>
<line x1="67.2682" y1="82.9863" x2="72.6003" y2="82.9863" stroke="#D5D5D5" stroke-width="2" stroke-linecap="round"/>
<path d="M0.278809 9C0.278809 4.02944 4.30825 0 9.27881 0H89.9294C94.8999 0 98.9294 4.02944 98.9294 9V17.3305H0.278809V9Z" fill="#B8BBC1"/>
<g clip-path="url(#clip0_2239_5848)">
<path d="M65.2754 38.9903C65.1154 38.8776 64.9174 38.8328 64.7245 38.8657C64.5316 38.8986 64.3596 39.0066 64.2462 39.166C64.1327 39.3255 64.087 39.5233 64.1191 39.7164C64.1511 39.9094 64.2583 40.0819 64.4172 40.196C64.7138 40.4324 64.9777 40.7071 65.2019 41.0131L49.6041 51.6479L34.0687 41.0556C34.3132 40.733 34.5907 40.4368 34.8967 40.1718C35.05 40.0493 35.1482 39.8708 35.1699 39.6758C35.1916 39.4808 35.1349 39.2852 35.0124 39.132C34.8898 38.9787 34.7114 38.8805 34.5164 38.8588C34.3214 38.8371 34.1257 38.8938 33.9725 39.0163C33.8854 39.0857 31.8447 40.7434 31.8447 42.9239V62.1632C31.8459 63.1441 32.2361 64.0845 32.9297 64.7782C33.6233 65.4718 34.5637 65.8619 35.5446 65.8631H63.6635C64.6444 65.8619 65.5848 65.4718 66.2785 64.7781C66.9721 64.0845 67.3622 63.1441 67.3634 62.1632V42.924C67.3634 40.4974 65.3606 39.0507 65.2754 38.9903Z" fill="#828CA2"/>
<path d="M38.5045 41.814C38.6503 41.814 38.7946 41.7853 38.9293 41.7295C39.064 41.6737 39.1863 41.592 39.2894 41.4889C39.3925 41.3858 39.4742 41.2635 39.53 41.1288C39.5858 40.9941 39.6145 40.8498 39.6145 40.704V33.6743H59.5937V40.704C59.5937 40.8498 59.6224 40.9941 59.6782 41.1288C59.734 41.2634 59.8157 41.3858 59.9188 41.4888C60.0219 41.5919 60.1442 41.6737 60.2789 41.7295C60.4136 41.7852 60.5579 41.8139 60.7037 41.8139C60.8494 41.8139 60.9938 41.7852 61.1284 41.7295C61.2631 41.6737 61.3855 41.5919 61.4885 41.4888C61.5916 41.3858 61.6733 41.2634 61.7291 41.1288C61.7849 40.9941 61.8136 40.8498 61.8136 40.704V33.3961C61.813 32.8813 61.6082 32.3877 61.2442 32.0237C60.8802 31.6597 60.3867 31.455 59.8719 31.4543H39.3362C38.8215 31.455 38.3279 31.6597 37.9639 32.0237C37.5999 32.3877 37.3951 32.8813 37.3945 33.3961V40.704C37.3945 40.8498 37.4232 40.9941 37.479 41.1288C37.5347 41.2635 37.6165 41.3858 37.7196 41.4889C37.8227 41.592 37.945 41.6737 38.0797 41.7295C38.2144 41.7853 38.3587 41.814 38.5045 41.814V41.814Z" fill="#6495ED"/>
</g>
<circle cx="11.6102" cy="9.33176" r="2.66623" fill="#828CA2"/>
<circle cx="18.9424" cy="9.33176" r="2.66623" fill="#828CA2"/>
<circle cx="26.2744" cy="9.33176" r="2.66623" fill="#828CA2"/>
<defs>
<clipPath id="clip0_2239_5848">
<rect width="35.9941" height="35.9941" fill="white" transform="translate(31.6071 30.6616)"/>
</clipPath>
</defs>
</svg>
