<svg width="108" height="108" viewBox="0 0 108 108" fill="none" xmlns="http://www.w3.org/2000/svg">
<path d="M54 93.375C53.3325 93.375 52.68 93.5729 52.125 93.9438C51.5699 94.3146 51.1374 94.8417 50.8819 95.4584C50.6265 96.0751 50.5596 96.7538 50.6899 97.4084C50.8201 98.0631 51.1415 98.6645 51.6135 99.1365C52.0855 99.6085 52.6869 99.9299 53.3416 100.06C53.9963 100.19 54.6749 100.124 55.2916 99.8681C55.9083 99.6126 56.4354 99.1801 56.8062 98.6251C57.1771 98.07 57.375 97.4175 57.375 96.75C57.3756 96.3066 57.2887 95.8675 57.1193 95.4577C56.9499 95.048 56.7013 94.6757 56.3878 94.3622C56.0743 94.0487 55.702 93.8001 55.2923 93.6307C54.8825 93.4613 54.4434 93.3744 54 93.375Z" fill="#828CA2"/>
<path d="M74.25 2.25H33.75C28.7794 2.25 24.75 6.27944 24.75 11.25V96.75C24.75 101.721 28.7794 105.75 33.75 105.75H74.25C79.2206 105.75 83.25 101.721 83.25 96.75V11.25C83.25 6.27944 79.2206 2.25 74.25 2.25Z" stroke="#828CA2" stroke-width="3" stroke-linecap="round" stroke-linejoin="round"/>
<path d="M30.6666 32C30.6666 29.7909 32.4575 28 34.6666 28H64C66.2091 28 68 29.7909 68 32V53.4212C68 55.5957 66.2628 57.3719 64.0888 57.4202L39.6664 57.963C38.6114 57.9864 37.6221 58.4809 36.9701 59.3107L36.8448 59.4701C34.8156 62.0529 30.6666 60.6179 30.6666 57.3333V32Z" fill="#6495ED"/>
<path d="M32.5152 67.7012L38.5152 58.0762C38.6142 57.9175 38.6666 57.7342 38.6666 57.5472V57C38.6666 56.4477 38.2189 56 37.6666 56H31.6666C31.1143 56 30.6666 56.4477 30.6666 57V67.1722C30.6666 68.1775 31.9834 68.5543 32.5152 67.7012Z" fill="#6495ED"/>
<path d="M57.0832 47.2291L56.3749 46.1666C55.2416 44.4666 54.6749 42.4124 54.6749 40.3583C54.6749 38.1624 53.2582 36.3208 51.3457 35.7541C51.1332 35.1874 50.5666 34.8333 49.9999 34.8333C49.4332 34.8333 48.8666 35.1874 48.6541 35.7541C46.7416 36.3208 45.3249 38.1624 45.3249 40.3583C45.3249 42.4124 44.7582 44.4666 43.6249 46.1666L42.9166 47.2291C42.6332 47.7249 42.9166 48.2916 43.4832 48.2916H56.4457C57.0124 48.2916 57.3666 47.6541 57.0832 47.2291Z" stroke="white" stroke-width="1.5" stroke-miterlimit="10" stroke-linejoin="round"/>
<path d="M52.125 50.4167C52.125 51.6209 51.2042 52.5417 50 52.5417C48.7958 52.5417 47.875 51.6209 47.875 50.4167" stroke="white" stroke-width="1.5" stroke-miterlimit="10" stroke-linejoin="round"/>
</svg>
