<svg width="104" height="104" viewBox="0 0 104 104" fill="none" xmlns="http://www.w3.org/2000/svg">
<path d="M80.1667 84.5H23.8334" stroke="#828CA2" stroke-width="3" stroke-linecap="round" stroke-linejoin="round"/>
<path d="M52 89.9168C51.3572 89.9168 50.7289 90.1074 50.1944 90.4645C49.6599 90.8216 49.2434 91.3292 48.9974 91.923C48.7514 92.5169 48.687 93.1704 48.8124 93.8008C48.9379 94.4312 49.2474 95.0103 49.7019 95.4649C50.1564 95.9194 50.7355 96.2289 51.366 96.3543C51.9964 96.4797 52.6499 96.4153 53.2437 96.1694C53.8376 95.9234 54.3452 95.5068 54.7023 94.9724C55.0594 94.4379 55.25 93.8095 55.25 93.1668C55.2506 92.7398 55.1669 92.3169 55.0038 91.9224C54.8406 91.5278 54.6013 91.1693 54.2994 90.8674C53.9975 90.5655 53.639 90.3261 53.2444 90.163C52.8498 89.9999 52.427 89.9162 52 89.9168Z" fill="#828CA2"/>
<path d="M71.5 2.16675H32.5C27.7136 2.16675 23.8334 6.04695 23.8334 10.8334V93.1667C23.8334 97.9532 27.7136 101.833 32.5 101.833H71.5C76.2865 101.833 80.1667 97.9532 80.1667 93.1667V10.8334C80.1667 6.04695 76.2865 2.16675 71.5 2.16675Z" stroke="#828CA2" stroke-width="3" stroke-linecap="round" stroke-linejoin="round"/>
<rect x="29.5309" y="20.5432" width="46.2222" height="15.4074" fill="#6495ED"/>
</svg>
