<svg width="56" height="56" viewBox="0 0 56 56" fill="none" xmlns="http://www.w3.org/2000/svg">
<g clip-path="url(#clip0_2239_5979)">
<path d="M24.441 26.874L22.2101 40.3264L18.8679 42.7187L17.8363 43.4569L14.9608 45.5143C14.1509 46.0946 13.0443 45.4047 13.207 44.423L14.9966 33.6315L24.441 26.874Z" fill="#5875CB"/>
<path d="M24.441 26.874L22.2101 40.3265L18.8679 42.7188L17.8361 43.457L14.6193 35.9066L14.9965 33.6317L24.441 26.874Z" fill="#5076FF"/>
<path d="M22.2929 50.7571L14.9966 33.6316L1.19177 27.5201C0.535184 26.9315 0.787517 25.8505 1.63552 25.6115L53.7555 4.60697C54.2588 4.46511 54.7133 4.67763 54.967 5.03223C55.2208 5.38683 55.2753 5.88558 54.9785 6.3162L24.2426 50.9533C23.7427 51.6786 22.6381 51.5685 22.2929 50.7571Z" fill="#6495ED" fill-opacity="0.78"/>
<path d="M54.9788 6.31571L24.2426 50.9531C23.7426 51.679 22.6377 51.568 22.2934 50.7573L18.8685 42.7188L14.9969 33.6316L24.4409 26.8744L54.4314 5.41467L54.9666 5.03174C55.2206 5.38699 55.2752 5.88608 54.9788 6.31571Z" fill="#6495ED" fill-opacity="0.78"/>
<path d="M54.9791 6.3162L24.242 50.9533C23.7428 51.6793 22.6374 51.5682 22.2937 50.7578L21.8514 49.7208C22.2749 49.8235 22.7537 49.681 23.0376 49.2687L52.0715 7.10328L54.966 5.03223C55.221 5.38737 55.2754 5.88613 54.9791 6.3162Z" fill="#5875CB"/>
<path d="M55.6337 4.55509C55.1528 3.88286 54.328 3.59355 53.5324 3.81723C53.5037 3.82532 53.4755 3.83495 53.4479 3.84611L15.1455 19.2826C14.7253 19.4519 14.522 19.9299 14.6914 20.3501C14.8607 20.7703 15.3386 20.9735 15.7589 20.8042L51.8308 6.26662L14.9004 32.6918L11.6303 31.244L13.0373 30.3598C13.4209 30.1188 13.5364 29.6124 13.2953 29.2288C13.0544 28.8453 12.548 28.7298 12.1643 28.9706L9.82108 30.4431L7.35244 29.3502L8.48974 28.6355C8.87333 28.3944 8.98883 27.888 8.74776 27.5044C8.50681 27.1209 8.00039 27.0054 7.6167 27.2463L5.54324 28.5493L1.68026 26.8392C1.62929 26.7556 1.63673 26.6703 1.64833 26.6205C1.6632 26.5565 1.71023 26.4429 1.85756 26.4015C1.88622 26.3934 1.91444 26.3838 1.942 26.3726L12.4585 22.1343C12.8787 21.9649 13.082 21.487 12.9127 21.0667C12.7433 20.6465 12.2655 20.4433 11.8452 20.6126L1.36449 24.8365C0.707903 25.0399 0.206738 25.5768 0.0503288 26.2487C-0.109799 26.9372 0.117486 27.6582 0.64348 28.1303C0.707684 28.1879 0.780529 28.2351 0.85939 28.27L14.0835 34.1244L12.398 44.2882C12.2693 45.0644 12.6176 45.8347 13.2855 46.2506C13.601 46.4471 13.9561 46.5446 14.3105 46.5446C14.706 46.5446 15.1005 46.423 15.438 46.1815L18.5141 43.9805L21.5382 51.0786C21.8152 51.7288 22.4243 52.1768 23.1275 52.2475C23.1925 52.254 23.2573 52.2572 23.3217 52.2572C23.9551 52.2572 24.5539 51.9466 24.9177 51.4182L34.6463 37.2901C34.9032 36.9169 34.809 36.4061 34.4358 36.1492C34.0626 35.892 33.5518 35.9863 33.2949 36.3595L23.5664 50.4876C23.4795 50.6138 23.3567 50.6215 23.2915 50.615C23.2261 50.6085 23.1075 50.5764 23.0475 50.4355L20.6663 44.8467L23.0944 43.1094C23.4629 42.8458 23.5479 42.3333 23.2842 41.9648C23.0205 41.5963 22.5081 41.5113 22.1397 41.7751L20.0076 43.3005L18.4193 39.5725L20.7472 37.907C21.1157 37.6434 21.2007 37.1308 20.9369 36.7624C20.6733 36.3939 20.1609 36.309 19.7924 36.5727L17.7605 38.0265L16.0091 33.9156L53.4014 7.15979L41.8673 23.9108C41.6104 24.2839 41.7046 24.7947 42.0778 25.0517C42.2198 25.1496 42.3818 25.1965 42.5423 25.1965C42.8031 25.1965 43.0595 25.0723 43.2187 24.8413L55.6538 6.78222C56.1226 6.10146 56.1147 5.22721 55.6337 4.55509ZM14.4834 44.8475C14.3426 44.9482 14.216 44.8974 14.153 44.8581C14.0899 44.8189 13.9884 44.7276 14.0167 44.5567L15.3455 36.5435L17.8555 42.4347L14.4834 44.8475Z" fill="#344563"/>
<path d="M40.948 26.6922C40.5748 26.4351 40.064 26.5295 39.8071 26.9026L35.3552 33.3677C35.0983 33.7409 35.1925 34.2517 35.5656 34.5086C35.7077 34.6065 35.8697 34.6534 36.0302 34.6534C36.291 34.6534 36.5474 34.5293 36.7066 34.2983L41.1584 27.8331C41.4153 27.4599 41.3212 26.9491 40.948 26.6922Z" fill="#344563"/>
</g>
<defs>
<clipPath id="clip0_2239_5979">
<rect width="56" height="56" fill="white"/>
</clipPath>
</defs>
</svg>
