<svg width="50" height="51" viewBox="0 0 50 51" fill="none" xmlns="http://www.w3.org/2000/svg">
<path d="M18.4548 34.6589L19.8052 26.1067L39.1602 5.40137L45.9119 11.703L27.007 32.4084L18.4548 34.6589Z" fill="#6495ED"/>
<path d="M41.4737 25.3031C40.9962 25.3031 40.5383 25.4928 40.2006 25.8304C39.863 26.1681 39.6733 26.626 39.6733 27.1036V44.0729C39.6733 44.8274 39.3736 45.551 38.8401 46.0845C38.3066 46.618 37.583 46.9177 36.8285 46.9177H6.44567C5.6912 46.9177 4.96763 46.618 4.43414 46.0845C3.90064 45.551 3.60093 44.8274 3.60093 44.0729V13.6901C3.60331 12.9372 3.90408 12.2159 4.43731 11.6844C4.97054 11.1528 5.69275 10.8543 6.44567 10.8543H23.4151C23.8926 10.8543 24.3505 10.6647 24.6882 10.327C25.0258 9.98935 25.2155 9.5314 25.2155 9.05388C25.2155 8.57637 25.0258 8.11842 24.6882 7.78076C24.3505 7.44311 23.8926 7.25342 23.4151 7.25342H6.44567C4.7369 7.2558 3.0988 7.93566 1.89052 9.14394C0.682242 10.3522 0.00238156 11.9903 0 13.6991V44.0729C0.00238156 45.7817 0.682242 47.4198 1.89052 48.6281C3.0988 49.8364 4.7369 50.5162 6.44567 50.5186H36.8285C38.5373 50.5162 40.1754 49.8364 41.3837 48.6281C42.592 47.4198 43.2718 45.7817 43.2742 44.0729V27.1036C43.2742 26.626 43.0845 26.1681 42.7469 25.8304C42.4092 25.4928 41.9512 25.3031 41.4737 25.3031Z" fill="#344563"/>
<path d="M48.3965 2.09498L47.4963 1.24876C47.0284 0.823795 46.4813 0.495265 45.8863 0.281976C45.2913 0.0686861 44.6601 -0.0251757 44.0288 0.0057625C43.3975 0.0367007 42.7785 0.191831 42.2072 0.462276C41.636 0.73272 41.1236 1.11317 40.6995 1.58185C40.4058 1.91499 40.1604 2.28773 39.9703 2.68914C39.7233 2.58327 39.4557 2.53405 39.1871 2.5451C38.712 2.56837 38.2654 2.77874 37.9448 3.13025L18.6078 24.4298C18.3818 24.6831 18.232 24.9952 18.1757 25.33L16.3752 34.1793C16.3206 34.4842 16.3456 34.7981 16.4478 35.0905C16.55 35.383 16.7259 35.6441 16.9585 35.8487C17.1912 36.0533 17.4727 36.1944 17.7758 36.2583C18.0789 36.3223 18.3934 36.3069 18.6888 36.2138L27.3221 33.6031C27.6336 33.5085 27.9136 33.3312 28.1323 33.09L47.4963 11.7545C47.7446 11.478 47.9013 11.1314 47.9448 10.7623C47.9883 10.3932 47.9166 10.0196 47.7393 9.69295C48.3712 9.30475 48.9032 8.77385 49.2927 8.14286C49.6823 7.51186 49.9184 6.79834 49.9823 6.05955C50.0462 5.32076 49.9361 4.57728 49.6607 3.88877C49.3853 3.20026 48.9523 2.5859 48.3965 2.09498ZM43.3462 3.99447C43.4528 3.87655 43.5816 3.78085 43.7253 3.71287C43.869 3.64489 44.0247 3.60598 44.1834 3.59837H44.2464C44.5463 3.59905 44.8351 3.71138 45.0567 3.91345L45.9569 4.75967C46.1335 4.92029 46.2585 5.12971 46.3161 5.36142C46.3736 5.59313 46.3611 5.8367 46.2801 6.06129C46.1992 6.28589 46.0534 6.48141 45.8612 6.62309C45.6691 6.76478 45.4392 6.84626 45.2007 6.85721C45.0379 6.86781 44.8746 6.84623 44.7201 6.79371C44.5657 6.74119 44.4231 6.65877 44.3005 6.55114L43.9674 6.25406L43.3642 5.70492C43.2503 5.59401 43.1595 5.46169 43.0969 5.31556C43.0344 5.16944 43.0013 5.01239 42.9996 4.85344C42.998 4.69449 43.0277 4.53678 43.0872 4.38937C43.1467 4.24195 43.2347 4.10775 43.3462 3.99447ZM25.8097 30.2993L20.4893 31.8927L21.5696 26.4913L39.3942 6.88422L41.7438 9.05378L41.9328 9.22483L43.5713 10.7102L25.8097 30.2993Z" fill="#344563"/>
</svg>
