<svg width="110" height="110" viewBox="0 0 110 110" fill="none" xmlns="http://www.w3.org/2000/svg">
<path d="M55 95.1043C54.3201 95.1043 53.6555 95.3059 53.0902 95.6836C52.5249 96.0613 52.0843 96.5982 51.8242 97.2263C51.564 97.8544 51.4959 98.5456 51.6286 99.2124C51.7612 99.8792 52.0886 100.492 52.5693 100.972C53.0501 101.453 53.6626 101.781 54.3294 101.913C54.9962 102.046 55.6874 101.978 56.3155 101.718C56.9436 101.457 57.4805 101.017 57.8582 100.452C58.2359 99.8862 58.4375 99.2216 58.4375 98.5418C58.4381 98.0902 58.3496 97.6429 58.1771 97.2256C58.0045 96.8082 57.7513 96.429 57.432 96.1097C57.1127 95.7904 56.7335 95.5372 56.3162 95.3647C55.8989 95.1921 55.4516 95.1036 55 95.1043Z" fill="#828CA2"/>
<path d="M75.625 2.29175H34.375C29.3124 2.29175 25.2084 6.3958 25.2084 11.4584V98.5417C25.2084 103.604 29.3124 107.708 34.375 107.708H75.625C80.6876 107.708 84.7917 103.604 84.7917 98.5417V11.4584C84.7917 6.3958 80.6876 2.29175 75.625 2.29175Z" stroke="#828CA2" stroke-width="3" stroke-linecap="round" stroke-linejoin="round"/>
<path d="M45.2817 53.1326C39.1197 53.1326 34.078 58.1742 34.078 64.3363V81.1418V88.1441C39.2597 83.6627 45.8419 81.1418 52.7042 81.1418H59.2863C65.4484 81.1418 70.49 76.1002 70.49 69.9381V64.3363C70.49 58.1742 65.4484 53.1326 59.2863 53.1326H45.2817Z" fill="#6495ED"/>
<path d="M44.6312 64.6719C44.5915 64.2997 44.4238 64.0099 44.1284 63.8026C43.8358 63.5952 43.4551 63.4915 42.9863 63.4915C42.6568 63.4915 42.3741 63.5412 42.1383 63.6406C41.9025 63.7401 41.7221 63.875 41.5971 64.0455C41.4721 64.2159 41.4082 64.4105 41.4054 64.6293C41.4054 64.8111 41.4466 64.9687 41.529 65.1023C41.6142 65.2358 41.7292 65.3494 41.8741 65.4432C42.019 65.5341 42.1795 65.6108 42.3557 65.6733C42.5318 65.7358 42.7094 65.7884 42.8883 65.831L43.7065 66.0355C44.0361 66.1122 44.3528 66.2159 44.6568 66.3466C44.9636 66.4773 45.2378 66.642 45.4792 66.8409C45.7236 67.0398 45.9167 67.2798 46.0588 67.5611C46.2008 67.8423 46.2719 68.1719 46.2719 68.5497C46.2719 69.0611 46.1412 69.5114 45.8798 69.9006C45.6185 70.2869 45.2406 70.5895 44.7463 70.8082C44.2548 71.0241 43.6596 71.1321 42.9608 71.1321C42.2818 71.1321 41.6923 71.027 41.1923 70.8168C40.6952 70.6065 40.306 70.2997 40.0247 69.8963C39.7463 69.4929 39.5957 69.0014 39.573 68.4219H41.1284C41.1511 68.7259 41.2449 68.9787 41.4096 69.1804C41.5744 69.3821 41.7889 69.5327 42.0531 69.6321C42.3202 69.7315 42.6185 69.7812 42.948 69.7812C43.2917 69.7812 43.5929 69.7301 43.8514 69.6278C44.1128 69.5227 44.3173 69.3778 44.465 69.1932C44.6128 69.0057 44.6881 68.7869 44.6909 68.5369C44.6881 68.3097 44.6213 68.1222 44.4906 67.9744C44.3599 67.8239 44.1767 67.6989 43.9409 67.5994C43.7079 67.4972 43.4352 67.4062 43.1227 67.3267L42.1298 67.071C41.4111 66.8864 40.8429 66.6065 40.4253 66.2315C40.0105 65.8537 39.8031 65.3523 39.8031 64.7273C39.8031 64.2131 39.9423 63.7628 40.2207 63.3764C40.502 62.9901 40.8841 62.6903 41.367 62.4773C41.85 62.2614 42.3969 62.1534 43.0077 62.1534C43.627 62.1534 44.1696 62.2614 44.6355 62.4773C45.1042 62.6903 45.4721 62.9872 45.7392 63.3679C46.0062 63.7457 46.144 64.1804 46.1525 64.6719H44.6312ZM47.6813 62.2727H49.616L52.2069 68.5966H52.3091L54.9001 62.2727H56.8347V71H55.3177V65.0043H55.2367L52.8248 70.9744H51.6912L49.2793 64.9915H49.1984V71H47.6813V62.2727ZM63.2992 64.6719C63.2594 64.2997 63.0918 64.0099 62.7964 63.8026C62.5037 63.5952 62.1231 63.4915 61.6543 63.4915C61.3248 63.4915 61.0421 63.5412 60.8063 63.6406C60.5705 63.7401 60.3901 63.875 60.2651 64.0455C60.1401 64.2159 60.0762 64.4105 60.0734 64.6293C60.0734 64.8111 60.1145 64.9687 60.1969 65.1023C60.2822 65.2358 60.3972 65.3494 60.5421 65.4432C60.687 65.5341 60.8475 65.6108 61.0236 65.6733C61.1998 65.7358 61.3773 65.7884 61.5563 65.831L62.3745 66.0355C62.704 66.1122 63.0208 66.2159 63.3248 66.3466C63.6316 66.4773 63.9057 66.642 64.1472 66.8409C64.3915 67.0398 64.5847 67.2798 64.7268 67.5611C64.8688 67.8423 64.9398 68.1719 64.9398 68.5497C64.9398 69.0611 64.8091 69.5114 64.5478 69.9006C64.2864 70.2869 63.9086 70.5895 63.4143 70.8082C62.9228 71.0241 62.3276 71.1321 61.6287 71.1321C60.9498 71.1321 60.3603 71.027 59.8603 70.8168C59.3631 70.6065 58.9739 70.2997 58.6927 69.8963C58.4143 69.4929 58.2637 69.0014 58.241 68.4219H59.7964C59.8191 68.7259 59.9128 68.9787 60.0776 69.1804C60.2424 69.3821 60.4569 69.5327 60.7211 69.6321C60.9881 69.7315 61.2864 69.7812 61.616 69.7812C61.9597 69.7812 62.2609 69.7301 62.5194 69.6278C62.7807 69.5227 62.9853 69.3778 63.133 69.1932C63.2807 69.0057 63.356 68.7869 63.3589 68.5369C63.356 68.3097 63.2893 68.1222 63.1586 67.9744C63.0279 67.8239 62.8447 67.6989 62.6089 67.5994C62.3759 67.4972 62.1032 67.4062 61.7907 67.3267L60.7978 67.071C60.079 66.8864 59.5109 66.6065 59.0932 66.2315C58.6785 65.8537 58.4711 65.3523 58.4711 64.7273C58.4711 64.2131 58.6103 63.7628 58.8887 63.3764C59.1699 62.9901 59.552 62.6903 60.035 62.4773C60.518 62.2614 61.0648 62.1534 61.6756 62.1534C62.2949 62.1534 62.8376 62.2614 63.3035 62.4773C63.7722 62.6903 64.1401 62.9872 64.4072 63.3679C64.6742 63.7457 64.812 64.1804 64.8205 64.6719H63.2992Z" fill="white"/>
</svg>
