<svg width="42" height="43" viewBox="0 0 42 43" fill="none" xmlns="http://www.w3.org/2000/svg">
<path d="M5.46575 0H36.5413C38.045 0 39.4073 0.614736 40.3958 1.6033C41.3844 2.59186 41.9991 3.95427 41.9991 5.45782V37.065C41.9991 38.5687 41.3844 39.9311 40.3958 40.9196C39.4073 41.9081 38.0448 42.5229 36.5413 42.5229H5.46575C3.9621 42.5229 2.59972 41.9081 1.61123 40.9196C0.622671 39.931 0.00793457 38.5686 0.00793457 37.065V5.45782C0.00793457 3.95417 0.622671 2.59179 1.61123 1.6033C2.5998 0.614736 3.96221 0 5.46575 0ZM36.5413 1.32916H5.46575C4.32769 1.32916 3.29757 1.79437 2.5499 2.54207C1.80225 3.28972 1.337 4.32816 1.337 5.45792V37.0651C1.337 38.2032 1.80221 39.2333 2.5499 39.981C3.29755 40.7286 4.33599 41.1939 5.46575 41.1939H36.5413C37.6794 41.1939 38.7095 40.7287 39.4572 39.981C40.2048 39.2333 40.6701 38.1949 40.6701 37.0651V5.45792C40.6701 4.31985 40.2048 3.28974 39.4572 2.54207C38.7095 1.79441 37.6711 1.32916 36.5413 1.32916Z" fill="#343A40"/>
<path d="M18.9396 21.4675H13.0585C12.693 21.4675 12.3939 21.1684 12.3939 20.8029V14.9218C12.3939 14.5563 12.693 14.2572 13.0585 14.2572H18.9396C19.3051 14.2572 19.6042 14.5563 19.6042 14.9218V20.8029C19.6042 21.1684 19.3051 21.4675 18.9396 21.4675ZM13.723 20.1383H18.275V15.5864H13.723V20.1383Z" fill="#343A40" stroke="#343A40" stroke-width="0.5"/>
<path d="M37.6128 15.7748H23.8816V29.506H37.6128V15.7748ZM23.2173 14.4457H38.2771C38.6426 14.4457 38.9417 14.7447 38.9417 15.1103V30.17C38.9417 30.5356 38.6426 30.8346 38.2771 30.8346H23.2173C22.8518 30.8346 22.5527 30.5356 22.5527 30.17V15.1103C22.5527 14.7447 22.8518 14.4457 23.2173 14.4457Z" fill="#6495ED" stroke="#6495ED" stroke-width="0.5"/>
<path d="M18.9225 30.8347H3.77054C3.40502 30.8347 3.10596 30.5357 3.10596 30.1702V24.4551C3.10596 24.0896 3.40502 23.7905 3.77054 23.7905H18.9225C19.288 23.7905 19.5871 24.0896 19.5871 24.4551V30.1702C19.5871 30.5357 19.288 30.8347 18.9225 30.8347ZM4.43588 29.5056H18.2582V25.1197H4.43588V29.5056Z" fill="#343A40" stroke="#343A40" stroke-width="0.5"/>
<path d="M9.61065 21.4675H3.72952C3.364 21.4675 3.06494 21.1684 3.06494 20.8029V14.9218C3.06494 14.5563 3.364 14.2572 3.72952 14.2572H9.61065C9.97617 14.2572 10.2752 14.5563 10.2752 14.9218V20.8029C10.2752 21.1684 9.97617 21.4675 9.61065 21.4675ZM4.39405 20.1383H8.94601V15.5864H4.39405V20.1383Z" fill="#343A40" stroke="#343A40" stroke-width="0.5"/>
</svg>
