<svg width="45" height="45" viewBox="0 0 45 45" fill="none" xmlns="http://www.w3.org/2000/svg">
<path d="M22.5 8.86299C18.8828 8.86054 15.4129 10.2961 12.8542 12.8539C10.2951 15.4113 8.85691 18.881 8.85566 22.4999C8.8544 26.1188 10.2906 29.5893 12.8476 32.1487C15.4046 34.7077 18.8737 36.1457 22.4909 36.1457C26.1078 36.1457 29.5768 34.7077 32.1338 32.1487C34.6912 29.5893 36.127 26.1187 36.1258 22.4999C36.1213 18.8856 34.6839 15.4203 32.1297 12.8641C29.5755 10.308 26.1127 8.86904 22.5 8.86299ZM22.5 34.7813C19.2436 34.7838 16.1199 33.4917 13.8159 31.1897C11.5121 28.8875 10.2165 25.7641 10.2149 22.5063C10.2133 19.2485 11.5057 16.1238 13.8073 13.8191C16.109 11.5148 19.2314 10.2198 22.4878 10.219C25.7441 10.2182 28.8674 11.5116 31.1703 13.8151C33.4728 16.1182 34.7668 19.2423 34.7668 22.5002C34.7656 25.7556 33.4732 28.8774 31.1731 31.1796C28.8731 33.4823 25.7539 34.7777 22.5 34.7813ZM42.3895 18.9357L39.4789 18.3926C39.0516 16.6196 38.3466 14.9253 37.3898 13.3724L39.0777 10.9397C39.338 10.5616 39.4582 10.1036 39.4162 9.64598C39.3747 9.18838 39.1743 8.7597 38.8496 8.43456L36.5365 6.12041C36.2127 5.79524 35.7846 5.59435 35.3272 5.5536C34.8702 5.51285 34.4132 5.63428 34.0369 5.89671L31.6235 7.59017C30.0693 6.63951 28.3761 5.93739 26.6056 5.50876L26.0854 2.61075C26.0044 2.15926 25.7669 1.75055 25.415 1.45598C25.0631 1.16177 24.6191 1 24.1605 1H20.8577C20.3991 1.00122 19.9555 1.16299 19.604 1.4572C19.2521 1.7514 19.0147 2.1597 18.9328 2.61083L18.3944 5.50434C16.6213 5.92609 14.9274 6.62856 13.3764 7.58534L10.9542 5.90565C10.5766 5.64526 10.1196 5.52588 9.66301 5.56744C9.20601 5.60941 8.77834 5.80989 8.4541 6.13425L6.1414 8.44798C5.81677 8.77315 5.61597 9.20183 5.57443 9.6594C5.53289 10.1174 5.65263 10.575 5.91331 10.9535L7.61009 13.3724C6.65333 14.9254 5.94824 16.6197 5.52105 18.3926L2.61046 18.9358C2.15876 19.0181 1.74982 19.2565 1.45577 19.609C1.16129 19.9618 1.00041 20.4068 1 20.8661V24.1341C1.00041 24.5941 1.16211 25.0395 1.4574 25.3923C1.75269 25.7452 2.16244 25.9832 2.615 26.0643L5.52111 26.6075C5.939 28.3837 6.64482 30.0792 7.61015 31.6277L5.92223 34.0603C5.66197 34.4385 5.54181 34.8965 5.58376 35.354C5.62531 35.8116 5.8257 36.2403 6.15032 36.5655L8.46345 38.8796C8.78726 39.2048 9.21532 39.4057 9.67277 39.4464C10.1298 39.4872 10.5868 39.3657 10.9631 39.1033L13.3764 37.4147C14.927 38.3722 16.621 39.0752 18.3944 39.4957L18.9145 42.3892C18.9964 42.8403 19.2343 43.2486 19.5858 43.5428C19.9373 43.837 20.3812 43.9988 20.8394 44H24.1239C24.5825 44 25.0269 43.8382 25.3788 43.544C25.7307 43.2494 25.9678 42.8407 26.0492 42.3892L26.6056 39.4912C28.3754 39.0622 30.0681 38.3617 31.6236 37.4147L34.0458 39.0944C34.4233 39.3548 34.8803 39.4742 35.3369 39.4326C35.7939 39.3907 36.2216 39.1902 36.5458 38.8658L38.8586 36.5521C39.1832 36.2269 39.384 35.7982 39.4255 35.3407C39.4671 34.8827 39.3473 34.4251 39.0866 34.0465L37.3899 31.6276C38.3552 30.0792 39.061 28.3836 39.4789 26.6074L42.3846 26.0871C42.8371 26.006 43.2473 25.768 43.5426 25.4151C43.8379 25.0623 43.9996 24.6169 44 24.1569V20.866C43.9996 20.4068 43.8387 19.9618 43.5442 19.6089C43.2502 19.2564 42.8411 19.018 42.3895 18.9357ZM42.6403 24.134C42.6391 24.4241 42.4326 24.6727 42.1475 24.7273L38.7946 25.3251C38.5213 25.3744 38.3058 25.5863 38.2521 25.8589C37.8525 27.7855 37.0893 29.6179 36.003 31.2581C35.8482 31.4867 35.8482 31.787 36.003 32.0156L37.9601 34.8223C38.1247 35.0611 38.0958 35.3834 37.8917 35.5892L35.579 37.9078C35.3721 38.1132 35.0479 38.1413 34.808 37.9759L32.0208 36.0407C31.7927 35.8904 31.4962 35.8904 31.2677 36.0407C29.6145 37.1079 27.7816 37.8654 25.8575 38.2771C25.5883 38.3374 25.3813 38.5533 25.3329 38.8247L24.7309 42.1607C24.68 42.446 24.4319 42.6538 24.1423 42.6538H20.8578C20.5682 42.6538 20.3202 42.4464 20.2693 42.1612L19.6673 38.8251C19.618 38.5525 19.4091 38.3357 19.1382 38.2771C17.2137 37.8781 15.3817 37.121 13.7369 36.0456C13.627 35.9735 13.4986 35.9356 13.3675 35.936C13.2294 35.9364 13.0942 35.9776 12.9797 36.0546L10.1832 37.9759C9.94332 38.1413 9.61952 38.1128 9.4122 37.9074L7.0995 35.5888C6.89788 35.3806 6.87303 35.0591 7.04003 34.8223L8.98331 32.0156C9.13849 31.787 9.13849 31.4867 8.98331 31.2581C7.89702 29.6179 7.13377 27.7855 6.73462 25.8589C6.68086 25.5863 6.4654 25.3744 6.19169 25.3251L2.84327 24.7273C2.55653 24.6743 2.34799 24.4254 2.34596 24.134V20.866C2.34392 20.5746 2.55206 20.324 2.8388 20.2727L6.1917 19.6566C6.46337 19.6101 6.67843 19.4019 6.73463 19.1318C7.14723 17.21 7.91455 15.3825 8.99718 13.742C9.15196 13.5134 9.15196 13.213 8.99718 12.9844L7.04004 10.1777C6.87549 9.93892 6.90441 9.61661 7.10847 9.41082L9.42117 7.09219C9.62768 6.89334 9.94456 6.86563 10.1832 7.02414L12.9704 8.95931C13.1993 9.11415 13.4991 9.11415 13.7275 8.95931C15.373 7.88475 17.2052 7.12762 19.1288 6.72747C19.4001 6.66879 19.609 6.45282 19.6579 6.17981L20.2693 2.87549C20.3202 2.59025 20.5682 2.38243 20.8578 2.38243H24.1423C24.4319 2.38243 24.68 2.59025 24.7309 2.87549L25.3329 6.21152C25.3813 6.48331 25.5882 6.69928 25.8575 6.75918C27.7803 7.16952 29.6124 7.927 31.2632 8.9955C31.4925 9.1479 31.7911 9.1479 32.0204 8.9955L34.8169 7.02414C35.0568 6.85871 35.3806 6.88722 35.588 7.0926L37.9007 9.41123C38.1023 9.61946 38.1271 9.94096 37.9601 10.1777L36.0168 12.9844C35.8617 13.213 35.8617 13.5134 36.0168 13.742C37.0942 15.3833 37.857 17.2113 38.2655 19.1318C38.3217 19.4019 38.5368 19.6101 38.8085 19.6566L42.1614 20.2727C42.4481 20.324 42.6562 20.5746 42.6542 20.866L42.6403 24.134Z" fill="#343A40" stroke="#343A40" stroke-width="0.5"/>
<path d="M17 28C17 26.3077 17 24.6154 19.8431 24.6154C21.7926 24.6154 23.9046 24.6154 24.7169 24.6154C28 24.6154 28 26.3077 28 28" stroke="#6495ED" stroke-width="1.5" stroke-linecap="round"/>
<circle cx="22.5001" cy="20.8077" r="3.05769" stroke="#6495ED" stroke-width="1.5"/>
</svg>
