<svg width="110" height="110" viewBox="0 0 110 110" fill="none" xmlns="http://www.w3.org/2000/svg">
<g clip-path="url(#clip0_2239_5887)">
<path d="M104.5 4.3999H5.5C4.04131 4.3999 2.64236 4.97936 1.61091 6.01081C0.579463 7.04226 0 8.44121 0 9.8999L0 78.0999C0 79.5586 0.579463 80.9575 1.61091 81.989C2.64236 83.0204 4.04131 83.5999 5.5 83.5999H30.8V96.7999H22V101.2H88V96.7999H79.2V83.5999H104.5C105.959 83.5999 107.358 83.0204 108.389 81.989C109.421 80.9575 110 79.5586 110 78.0999V9.8999C110 8.44121 109.421 7.04226 108.389 6.01081C107.358 4.97936 105.959 4.3999 104.5 4.3999V4.3999ZM74.8 96.7999H35.2V83.5999H74.8V96.7999ZM105.6 78.0999C105.6 78.3916 105.484 78.6714 105.278 78.8777C105.072 79.084 104.792 79.1999 104.5 79.1999H5.5C5.20826 79.1999 4.92847 79.084 4.72218 78.8777C4.51589 78.6714 4.4 78.3916 4.4 78.0999V65.9999H105.6V78.0999ZM105.6 61.5999H4.4V9.8999C4.4 9.60816 4.51589 9.32837 4.72218 9.12208C4.92847 8.91579 5.20826 8.7999 5.5 8.7999H104.5C104.792 8.7999 105.072 8.91579 105.278 9.12208C105.484 9.32837 105.6 9.60816 105.6 9.8999V61.5999Z" fill="#828CA2"/>
<rect x="57.037" y="17.6543" width="48.8889" height="16.2963" fill="#6495ED"/>
</g>
<defs>
<clipPath id="clip0_2239_5887">
<rect width="110" height="110" fill="white"/>
</clipPath>
</defs>
</svg>
